<svg width="67" height="67" viewBox="0 0 67 67" fill="none" xmlns="http://www.w3.org/2000/svg">
<g id="capitol">
<path id="blubg" d="M25.2219 65.5285C18.8443 63.9385 13.0813 60.4929 8.6619 55.6276C4.24246 50.7623 1.365 44.6958 0.393378 38.1951C-0.578241 31.6945 0.399624 25.0517 3.20332 19.1068C6.00701 13.1619 10.5106 8.18185 16.1446 4.79649C21.7786 1.41112 28.2899 -0.22755 34.8552 0.0876939C41.4205 0.402938 47.7449 2.65794 53.0286 6.56753C58.3124 10.4771 62.3181 15.8657 64.5393 22.0519C66.7605 28.2381 67.0974 34.944 65.5074 41.3217C64.4517 45.5563 62.5722 49.5415 59.9763 53.0498C57.3804 56.5581 54.1189 59.5207 50.3781 61.7686C46.6372 64.0164 42.4902 65.5054 38.1739 66.1505C33.8576 66.7956 29.4565 66.5843 25.2219 65.5285V65.5285Z" fill="#1181E8"/>
<g id="building">
<path id="Path 674" d="M20.3747 26.1645H44.7032C44.972 26.1645 45.2297 26.0582 45.4197 25.8691C45.6098 25.68 45.7165 25.4234 45.7165 25.156C45.7165 24.8885 45.6098 24.632 45.4197 24.4429C45.2297 24.2537 44.972 24.1475 44.7032 24.1475H44.6512C44.426 21.4721 43.3128 18.9473 41.4869 16.9709C39.661 14.9946 37.2262 13.6791 34.5662 13.2317V11.7893L33 11.788V11V10V9V8.5C33 8.43308 33 8 33 8C33 8 33 7.5 32.5 7.5C32 7.5 32 8 32 8C32 8 32 8.18521 32 8.25212V9V10V11.788H30.5117V13.2305C27.8512 13.6778 25.4158 14.9934 23.5892 16.9698C21.7627 18.9464 20.6488 21.4715 20.4231 24.1475H20.3723C20.1033 24.1475 19.8454 24.2539 19.6553 24.4431C19.4651 24.6324 19.3583 24.889 19.3583 25.1567C19.3583 25.4242 19.4651 25.6809 19.6553 25.8702C19.8454 26.0595 20.1033 26.1657 20.3723 26.1657L20.3747 26.1645Z" fill="white"/>
<path id="Path 675" d="M49.7736 51.4821H48.5063V39.8796H49.7736C50.1097 39.8796 50.432 39.7466 50.6697 39.5102C50.9073 39.2736 51.0408 38.9528 51.0408 38.6183C51.0408 38.2838 50.9073 37.9631 50.6697 37.7265C50.432 37.49 50.1097 37.3571 49.7736 37.3571H15.3069C14.9708 37.3571 14.6484 37.49 14.4108 37.7265C14.1731 37.9631 14.0396 38.2838 14.0396 38.6183C14.0396 38.9528 14.1731 39.2736 14.4108 39.5102C14.6484 39.7466 14.9708 39.8796 15.3069 39.8796H16.5741V51.4821H15.3069C15.1372 51.4768 14.9682 51.5055 14.8099 51.5665C14.6516 51.6275 14.5072 51.7195 14.3853 51.8371C14.2634 51.9546 14.1665 52.0953 14.1003 52.251C14.0341 52.4065 14 52.5737 14 52.7427C14 52.9116 14.0341 53.0789 14.1003 53.2345C14.1665 53.39 14.2634 53.5308 14.3853 53.6484C14.5072 53.7659 14.6516 53.8579 14.8099 53.9189C14.9682 53.9799 15.1372 54.0086 15.3069 54.0033H49.7736C49.9432 54.0086 50.1122 53.9799 50.2706 53.9189C50.4289 53.8579 50.5733 53.7659 50.6952 53.6484C50.8171 53.5308 50.914 53.39 50.9802 53.2345C51.0463 53.0789 51.0805 52.9116 51.0805 52.7427C51.0805 52.5737 51.0463 52.4065 50.9802 52.251C50.914 52.0953 50.8171 51.9546 50.6952 51.8371C50.5733 51.7195 50.4289 51.6275 50.2706 51.5665C50.1122 51.5055 49.9432 51.4768 49.7736 51.4821ZM44.9584 51.4821H42.8289V39.8796H44.9572L44.9584 51.4821ZM31.4755 39.8796H33.5988V51.4821H31.4755V39.8796ZM27.9276 51.4821H25.7944V39.8796H27.9239L27.9276 51.4821ZM37.1528 39.8796H39.2811V51.4821H37.1528V39.8796ZM20.122 39.8796H22.2503V51.4821H20.122V39.8796Z" fill="white"/>
<path id="Path 676" d="M18.856 30.4518H20.1332C20.1332 30.4703 20.1233 30.4876 20.1233 30.5024V35.9467H22.6578V30.5024C22.6578 30.4839 22.6479 30.4665 22.6479 30.4518H23.852C23.852 30.4703 23.8421 30.4876 23.8421 30.5024V35.9467H26.3754V30.5024C26.3754 30.4839 26.3655 30.4665 26.3655 30.4518H27.5696C27.5696 30.4703 27.5597 30.4876 27.5597 30.5024V35.9467H30.098V30.5024C30.098 30.4839 30.088 30.4665 30.088 30.4518H31.2921C31.2921 30.4703 31.2822 30.4876 31.2822 30.5024V35.9467H33.8143V30.5024C33.8143 30.4839 33.8044 30.4665 33.8044 30.4518H35.0085C35.0085 30.4703 34.9986 30.4876 34.9986 30.5024V35.9467H37.5307V30.5024C37.5307 30.4839 37.5208 30.4665 37.5208 30.4518H38.7249C38.7249 30.4703 38.7149 30.4876 38.7149 30.5024V35.9467H41.247V30.5024C41.247 30.4839 41.2371 30.4665 41.2371 30.4518H42.4412C42.4412 30.4703 42.4313 30.4876 42.4313 30.5024V35.9467H44.9634V30.5024C44.9634 30.4839 44.9535 30.4665 44.9535 30.4518H46.2306C46.5667 30.4518 46.8891 30.3189 47.1267 30.0823C47.3644 29.8459 47.4979 29.5251 47.4979 29.1906C47.4979 28.8561 47.3644 28.5353 47.1267 28.2988C46.8891 28.0622 46.5667 27.9293 46.2306 27.9293H18.8634C18.697 27.9289 18.5321 27.961 18.3782 28.024C18.2242 28.0868 18.0843 28.1794 17.9662 28.2961C17.7279 28.5319 17.5934 28.8524 17.5924 29.1869C17.5914 29.5214 17.724 29.8426 17.961 30.0798C18.1979 30.317 18.5199 30.4508 18.856 30.4518Z" fill="white"/>
</g>
</g>
</svg>
