<svg width="67" height="67" viewBox="0 0 67 67" fill="none" xmlns="http://www.w3.org/2000/svg">
<g id="money">
<path id="blubg" d="M25.2219 65.5285C18.8443 63.9385 13.0813 60.4929 8.6619 55.6276C4.24246 50.7623 1.365 44.6958 0.393378 38.1951C-0.578241 31.6945 0.399624 25.0517 3.20332 19.1068C6.00701 13.1619 10.5106 8.18185 16.1446 4.79649C21.7786 1.41112 28.2899 -0.22755 34.8552 0.0876939C41.4205 0.402938 47.7449 2.65794 53.0286 6.56753C58.3124 10.4771 62.3181 15.8657 64.5393 22.0519C66.7605 28.2381 67.0974 34.944 65.5074 41.3217C64.4517 45.5563 62.5722 49.5415 59.9763 53.0498C57.3804 56.5581 54.1189 59.5207 50.3781 61.7686C46.6372 64.0164 42.4902 65.5054 38.1739 66.1505C33.8576 66.7956 29.4565 66.5843 25.2219 65.5285V65.5285Z" fill="#1181E8"/>
<g id="moneyFlow">
<path id="Path 668" d="M47.1965 33.3005C47.2676 30.5204 46.5082 27.7822 45.0152 25.4359C43.5223 23.0896 41.3636 21.2417 38.8152 20.1284C36.2667 19.0151 33.4441 18.6869 30.7082 19.1858C27.9723 19.6848 25.4473 20.9881 23.4559 22.9293C21.4644 24.8706 20.097 27.3615 19.5284 30.0838C18.9598 32.8061 19.2158 35.6361 20.2636 38.2121C21.3115 40.7882 23.1037 42.9933 25.4111 44.5457C27.7186 46.0981 30.4365 46.9272 33.2175 46.9271C36.8769 46.9693 40.4037 45.5585 43.0243 43.0039C45.6449 40.4494 47.1453 36.9598 47.1965 33.3005ZM31.9164 41.3057V39.9965C30.8588 40.0576 29.8117 39.7579 28.9466 39.1465C28.673 38.9456 28.4887 38.6458 28.433 38.311C28.3772 37.9762 28.4544 37.6329 28.6481 37.3541C28.8417 37.0754 29.1366 36.8833 29.4698 36.8187C29.803 36.7542 30.1482 36.8223 30.432 37.0085C30.7631 37.2464 31.1575 37.3803 31.5649 37.3932H34.718C35.0877 37.3932 35.4422 37.2464 35.7036 36.985C35.965 36.7236 36.1118 36.3691 36.1118 35.9995C36.1118 35.6298 35.965 35.2753 35.7036 35.0139C35.4422 34.7525 35.0877 34.6057 34.718 34.6057H31.723C31.1892 34.6062 30.6608 34.4999 30.1687 34.293C29.6767 34.0861 29.231 33.7828 28.858 33.4009C28.485 33.0191 28.1923 32.5664 27.997 32.0697C27.8017 31.5729 27.7079 31.042 27.721 30.5084C27.7341 29.9748 27.8539 29.4492 28.0733 28.9626C28.2928 28.476 28.6074 28.0383 28.9987 27.6752C29.39 27.3121 29.85 27.0311 30.3516 26.8486C30.8532 26.6661 31.3863 26.5859 31.9194 26.6126V25.3034C31.9194 24.9584 32.0565 24.6274 32.3005 24.3834C32.5445 24.1394 32.8754 24.0023 33.2205 24.0023C33.5656 24.0023 33.8966 24.1394 34.1406 24.3834C34.3846 24.6274 34.5217 24.9584 34.5217 25.3034V26.6126C35.1677 26.6078 35.8077 26.7375 36.4008 26.9936C36.994 27.2497 37.5273 27.6265 37.9668 28.1001C38.0861 28.2244 38.1794 28.3711 38.2415 28.5318C38.3036 28.6924 38.3332 28.8638 38.3285 29.036C38.3238 29.2082 38.285 29.3777 38.2143 29.5348C38.1436 29.6919 38.0425 29.8333 37.9167 29.951C37.7909 30.0687 37.643 30.1602 37.4815 30.2202C37.3201 30.2803 37.1483 30.3077 36.9762 30.3009C36.8041 30.294 36.6351 30.2531 36.4789 30.1804C36.3227 30.1078 36.1826 30.0048 36.0665 29.8775C35.881 29.675 35.6564 29.5119 35.4064 29.3983C35.1563 29.2846 34.8859 29.2225 34.6113 29.2159H31.723C31.36 29.2256 31.0151 29.3767 30.7618 29.6369C30.5085 29.8972 30.3667 30.246 30.3667 30.6092C30.3667 30.9723 30.5085 31.3211 30.7618 31.5814C31.0151 31.8416 31.36 31.9927 31.723 32.0024H34.718C35.2518 32.0019 35.7803 32.1082 36.2724 32.3151C36.7644 32.522 37.2101 32.8253 37.583 33.2072C37.956 33.589 38.2488 34.0417 38.444 34.5384C38.6393 35.0352 38.7332 35.5661 38.7201 36.0997C38.707 36.6333 38.5872 37.1589 38.3677 37.6455C38.1483 38.1321 37.8336 38.5698 37.4424 38.9329C37.0511 39.296 36.5911 39.577 36.0895 39.7595C35.5878 39.942 35.0548 40.0223 34.5217 39.9955V41.3047C34.5217 41.6497 34.3846 41.9807 34.1406 42.2247C33.8966 42.4687 33.5656 42.6058 33.2205 42.6058C32.8754 42.6058 32.5445 42.4687 32.3005 42.2247C32.0565 41.9807 31.9194 41.6497 31.9194 41.3047L31.9164 41.3057Z" fill="white"/>
<path id="Path 669" d="M21.1902 49.055L20.4852 44.055C20.4613 43.8857 20.4042 43.7229 20.3174 43.5757C20.2305 43.4286 20.1155 43.2999 19.9789 43.1972C19.8423 43.0945 19.6869 43.0197 19.5214 42.977C19.3559 42.9344 19.1836 42.9248 19.0144 42.9487C18.8452 42.9726 18.6823 43.0297 18.5352 43.1165C18.388 43.2034 18.2594 43.3184 18.1567 43.455C18.0539 43.5916 17.9791 43.747 17.9365 43.9125C17.8938 44.078 17.8842 44.2503 17.9081 44.4195L18.0663 45.5394C15.5293 42.4095 14.023 38.5714 13.7541 34.5515C13.4852 30.5316 14.4667 26.5269 16.5642 23.0871C18.6616 19.6472 21.7721 16.9407 25.4688 15.3388C29.1655 13.7369 33.2674 13.3182 37.2115 14.1401C37.3789 14.176 37.5517 14.1785 37.72 14.1475C37.8883 14.1165 38.0489 14.0526 38.1925 13.9595C38.336 13.8663 38.4598 13.7457 38.5567 13.6047C38.6537 13.4636 38.7218 13.3048 38.7572 13.1373C38.7927 12.9699 38.7947 12.7971 38.7633 12.6288C38.7318 12.4606 38.6675 12.3002 38.5739 12.1569C38.4804 12.0135 38.3595 11.8901 38.2182 11.7935C38.0768 11.697 37.9178 11.6293 37.7503 11.5943C33.2809 10.6609 28.6321 11.1334 24.4419 12.9468C20.2516 14.7602 16.7251 17.8258 14.3461 21.7229C11.9671 25.62 10.8523 30.1577 11.1545 34.7135C11.4567 39.2693 13.1611 43.6201 16.034 47.1688L14.7762 46.9271C14.6083 46.8949 14.4357 46.8961 14.2683 46.9306C14.1008 46.9651 13.9418 47.0322 13.8003 47.1282C13.6589 47.2241 13.5377 47.347 13.4436 47.4898C13.3496 47.6325 13.2847 47.7924 13.2525 47.9603C13.2203 48.1282 13.2215 48.3008 13.256 48.4683C13.2905 48.6357 13.3576 48.7947 13.4535 48.9362C13.5495 49.0777 13.6724 49.1989 13.8152 49.2929C13.9579 49.3869 14.1178 49.4518 14.2857 49.484L19.5456 50.4911C19.7545 50.5487 19.9744 50.5537 20.1856 50.5054C20.3968 50.4572 20.5928 50.3572 20.7559 50.2146C20.919 50.072 21.0441 49.8911 21.1201 49.6882C21.1961 49.4853 21.2205 49.2667 21.1912 49.052L21.1902 49.055Z" fill="white"/>
<path id="Path 670" d="M53.9902 25.6277C53.1516 23.3342 51.9399 21.1949 50.404 19.2963L51.6619 19.538C51.8297 19.5703 52.0022 19.5692 52.1696 19.5348C52.337 19.5003 52.496 19.4333 52.6375 19.3374C52.779 19.2416 52.9002 19.1188 52.9942 18.9761C53.0883 18.8334 53.1533 18.6736 53.1856 18.5058C53.2178 18.3379 53.2167 18.1654 53.1823 17.998C53.1479 17.8306 53.0809 17.6716 52.985 17.5301C52.8892 17.3886 52.7664 17.2674 52.6237 17.1734C52.481 17.0794 52.3211 17.0143 52.1533 16.9821L46.8924 15.975C46.6836 15.9176 46.4638 15.9128 46.2528 15.9611C46.0417 16.0095 45.8459 16.1094 45.6829 16.2521C45.52 16.3947 45.3949 16.5755 45.319 16.7783C45.2431 16.9811 45.2186 17.1995 45.2479 17.4141L45.9528 22.4142C45.9768 22.5834 46.0338 22.7462 46.1207 22.8934C46.2075 23.0406 46.3225 23.1692 46.4591 23.2719C46.5957 23.3746 46.7512 23.4495 46.9167 23.4921C47.0822 23.5347 47.2544 23.5444 47.4237 23.5204C47.5929 23.4965 47.7557 23.4395 47.9029 23.3526C48.05 23.2657 48.1787 23.1507 48.2814 23.0141C48.3841 22.8776 48.4589 22.7221 48.5016 22.5566C48.5442 22.3911 48.5538 22.2188 48.5299 22.0496L48.3718 20.9298C50.9073 24.0598 52.4124 27.8976 52.6805 31.9168C52.9486 35.936 51.9667 39.9397 49.8693 43.3788C47.772 46.8179 44.6621 49.5238 40.9661 51.1255C37.2701 52.7272 33.169 53.1462 29.2255 52.3249C28.8879 52.253 28.5355 52.3181 28.2459 52.5059C27.9563 52.6937 27.7532 52.9889 27.6812 53.3265C27.6092 53.6641 27.6743 54.0164 27.8621 54.3061C28.0499 54.5957 28.3451 54.7988 28.6827 54.8708C32.5439 55.6785 36.5508 55.439 40.2883 54.1772C44.0257 52.9154 47.3578 50.6771 49.9392 47.6942C52.5206 44.7114 54.2574 41.0925 54.9697 37.2126C55.682 33.3327 55.3438 29.3329 53.9902 25.6277V25.6277Z" fill="white"/>
</g>
</g>
</svg>
