<svg xmlns="http://www.w3.org/2000/svg" width="661.58" height="302.847" viewBox="0 0 661.58 302.847">
  <g id="Group_486" data-name="Group 486" transform="translate(-1095.637 -3891.652)">
    <path id="Fill_1" data-name="Fill 1" d="M15,7.5A7.5,7.5,0,1,1,7.5,0,7.5,7.5,0,0,1,15,7.5" transform="translate(1095.637 3891.652)" fill="#f9fafe" opacity="0.1"/>
    <path id="Fill_3" data-name="Fill 3" d="M15,7.5A7.5,7.5,0,1,1,7.5,0,7.5,7.5,0,0,1,15,7.5" transform="translate(1156.075 3891.652)" fill="#f9fafe" opacity="0.1"/>
    <path id="Fill_5" data-name="Fill 5" d="M15,7.5A7.5,7.5,0,1,1,7.5,0,7.5,7.5,0,0,1,15,7.5" transform="translate(1211.477 3891.652)" fill="#f9fafe" opacity="0.1"/>
    <path id="Fill_7" data-name="Fill 7" d="M15,7.5A7.5,7.5,0,1,1,7.5,0,7.5,7.5,0,0,1,15,7.5" transform="translate(1271.915 3891.652)" fill="#f9fafe" opacity="0.1"/>
    <path id="Fill_9" data-name="Fill 9" d="M15,7.5A7.5,7.5,0,1,1,7.5,0,7.5,7.5,0,0,1,15,7.5" transform="translate(1327.317 3891.652)" fill="#f9fafe" opacity="0.1"/>
    <path id="Fill_14" data-name="Fill 14" d="M15,7.5A7.5,7.5,0,1,1,7.5,0,7.5,7.5,0,0,1,15,7.5" transform="translate(1095.637 3947.201)" fill="#f9fafe" opacity="0.1"/>
    <path id="Fill_16" data-name="Fill 16" d="M15,7.5A7.5,7.5,0,1,1,7.5,0,7.5,7.5,0,0,1,15,7.5" transform="translate(1156.075 3947.201)" fill="#f9fafe" opacity="0.1"/>
    <path id="Fill_18" data-name="Fill 18" d="M15,7.5A7.5,7.5,0,1,1,7.5,0,7.5,7.5,0,0,1,15,7.5" transform="translate(1211.477 3947.201)" fill="#f9fafe" opacity="0.1"/>
    <path id="Fill_20" data-name="Fill 20" d="M15,7.5A7.5,7.5,0,1,1,7.5,0,7.5,7.5,0,0,1,15,7.5" transform="translate(1271.915 3947.201)" fill="#f9fafe" opacity="0.1"/>
    <path id="Fill_22" data-name="Fill 22" d="M15,7.5A7.5,7.5,0,1,1,7.5,0,7.5,7.5,0,0,1,15,7.5" transform="translate(1327.317 3947.201)" fill="#f9fafe" opacity="0.1"/>
    <path id="Fill_27" data-name="Fill 27" d="M15,7.5A7.5,7.5,0,1,1,7.5,0,7.5,7.5,0,0,1,15,7.5" transform="translate(1095.637 4007.8)" fill="#f9fafe" opacity="0.1"/>
    <path id="Fill_29" data-name="Fill 29" d="M15,7.5A7.5,7.5,0,1,1,7.5,0,7.5,7.5,0,0,1,15,7.5" transform="translate(1156.075 4007.8)" fill="#f9fafe" opacity="0.1"/>
    <path id="Fill_31" data-name="Fill 31" d="M15,7.5A7.5,7.5,0,1,1,7.5,0,7.5,7.5,0,0,1,15,7.5" transform="translate(1211.477 4007.8)" fill="#f9fafe" opacity="0.1"/>
    <path id="Fill_33" data-name="Fill 33" d="M15,7.5A7.5,7.5,0,1,1,7.5,0,7.5,7.5,0,0,1,15,7.5" transform="translate(1271.915 4007.8)" fill="#f9fafe" opacity="0.1"/>
    <path id="Fill_35" data-name="Fill 35" d="M15,7.5A7.5,7.5,0,1,1,7.5,0,7.5,7.5,0,0,1,15,7.5" transform="translate(1327.317 4007.8)" fill="#f9fafe" opacity="0.1"/>
    <path id="Fill_40" data-name="Fill 40" d="M15,7.5A7.5,7.5,0,1,1,7.5,0,7.5,7.5,0,0,1,15,7.5" transform="translate(1095.637 4063.349)" fill="#f9fafe" opacity="0.1"/>
    <path id="Fill_42" data-name="Fill 42" d="M15,7.5A7.5,7.5,0,1,1,7.5,0,7.5,7.5,0,0,1,15,7.5" transform="translate(1156.075 4063.349)" fill="#f9fafe" opacity="0.1"/>
    <path id="Fill_44" data-name="Fill 44" d="M15,7.5A7.5,7.5,0,1,1,7.5,0,7.5,7.5,0,0,1,15,7.5" transform="translate(1211.477 4063.349)" fill="#f9fafe" opacity="0.1"/>
    <path id="Fill_46" data-name="Fill 46" d="M15,7.5A7.5,7.5,0,1,1,7.5,0,7.5,7.5,0,0,1,15,7.5" transform="translate(1271.915 4063.349)" fill="#f9fafe" opacity="0.1"/>
    <path id="Fill_48" data-name="Fill 48" d="M15,7.5A7.5,7.5,0,1,1,7.5,0,7.5,7.5,0,0,1,15,7.5" transform="translate(1327.317 4063.349)" fill="#f9fafe" opacity="0.1"/>
    <path id="Fill_53" data-name="Fill 53" d="M15,7.5A7.5,7.5,0,1,1,7.5,0,7.5,7.5,0,0,1,15,7.5" transform="translate(1095.637 4123.948)" fill="#f9fafe" opacity="0.1"/>
    <path id="Fill_55" data-name="Fill 55" d="M15,7.5A7.5,7.5,0,1,1,7.5,0,7.5,7.5,0,0,1,15,7.5" transform="translate(1156.075 4123.948)" fill="#f9fafe" opacity="0.1"/>
    <path id="Fill_57" data-name="Fill 57" d="M15,7.5A7.5,7.5,0,1,1,7.5,0,7.5,7.5,0,0,1,15,7.5" transform="translate(1211.477 4123.948)" fill="#f9fafe" opacity="0.1"/>
    <path id="Fill_59" data-name="Fill 59" d="M15,7.5A7.5,7.5,0,1,1,7.5,0,7.5,7.5,0,0,1,15,7.5" transform="translate(1271.915 4123.948)" fill="#f9fafe" opacity="0.1"/>
    <path id="Fill_61" data-name="Fill 61" d="M15,7.5A7.5,7.5,0,1,1,7.5,0,7.5,7.5,0,0,1,15,7.5" transform="translate(1327.317 4123.948)" fill="#f9fafe" opacity="0.1"/>
    <path id="Fill_66" data-name="Fill 66" d="M15,7.5A7.5,7.5,0,1,1,7.5,0,7.5,7.5,0,0,1,15,7.5" transform="translate(1095.637 4179.497)" fill="#f9fafe" opacity="0.1"/>
    <path id="Fill_68" data-name="Fill 68" d="M15,7.5A7.5,7.5,0,1,1,7.5,0,7.5,7.5,0,0,1,15,7.5" transform="translate(1156.075 4179.497)" fill="#f9fafe" opacity="0.1"/>
    <path id="Fill_70" data-name="Fill 70" d="M15,7.5A7.5,7.5,0,1,1,7.5,0,7.5,7.5,0,0,1,15,7.5" transform="translate(1211.477 4179.497)" fill="#f9fafe" opacity="0.1"/>
    <path id="Fill_72" data-name="Fill 72" d="M15,7.5A7.5,7.5,0,1,1,7.5,0,7.5,7.5,0,0,1,15,7.5" transform="translate(1271.915 4179.497)" fill="#f9fafe" opacity="0.1"/>
    <path id="Fill_74" data-name="Fill 74" d="M15,7.5A7.5,7.5,0,1,1,7.5,0,7.5,7.5,0,0,1,15,7.5" transform="translate(1327.317 4179.497)" fill="#f9fafe" opacity="0.1"/>
    <path id="Fill_9_Copy" data-name="Fill 9 Copy" d="M15,7.5A7.5,7.5,0,1,1,7.5,0,7.5,7.5,0,0,1,15,7.5" transform="translate(1387.755 3891.652)" fill="#f9fafe" opacity="0.1"/>
    <path id="Fill_22_Copy" data-name="Fill 22 Copy" d="M15,7.5A7.5,7.5,0,1,1,7.5,0,7.5,7.5,0,0,1,15,7.5" transform="translate(1387.755 3947.201)" fill="#f9fafe" opacity="0.1"/>
    <path id="Fill_35_Copy" data-name="Fill 35 Copy" d="M15,7.5A7.5,7.5,0,1,1,7.5,0,7.5,7.5,0,0,1,15,7.5" transform="translate(1387.755 4007.8)" fill="#f9fafe" opacity="0.1"/>
    <path id="Fill_48_Copy" data-name="Fill 48 Copy" d="M15,7.5A7.5,7.5,0,1,1,7.5,0,7.5,7.5,0,0,1,15,7.5" transform="translate(1387.755 4063.349)" fill="#f9fafe" opacity="0.1"/>
    <path id="Fill_61_Copy" data-name="Fill 61 Copy" d="M15,7.5A7.5,7.5,0,1,1,7.5,0,7.5,7.5,0,0,1,15,7.5" transform="translate(1387.755 4123.948)" fill="#f9fafe" opacity="0.1"/>
    <path id="Fill_74_Copy" data-name="Fill 74 Copy" d="M15,7.5A7.5,7.5,0,1,1,7.5,0,7.5,7.5,0,0,1,15,7.5" transform="translate(1387.755 4179.497)" fill="#f9fafe" opacity="0.1"/>
    <path id="Fill_1-2" data-name="Fill 1" d="M15,7.5A7.5,7.5,0,1,1,7.5,0,7.5,7.5,0,0,1,15,7.5" transform="translate(1450.099 3891.652)" fill="#f9fafe" opacity="0.1"/>
    <path id="Fill_3-2" data-name="Fill 3" d="M15,7.5A7.5,7.5,0,1,1,7.5,0,7.5,7.5,0,0,1,15,7.5" transform="translate(1510.537 3891.652)" fill="#f9fafe" opacity="0.1"/>
    <path id="Fill_5-2" data-name="Fill 5" d="M15,7.5A7.5,7.5,0,1,1,7.5,0,7.5,7.5,0,0,1,15,7.5" transform="translate(1565.939 3891.652)" fill="#f9fafe" opacity="0.1"/>
    <path id="Fill_7-2" data-name="Fill 7" d="M15,7.5A7.5,7.5,0,1,1,7.5,0,7.5,7.5,0,0,1,15,7.5" transform="translate(1626.377 3891.652)" fill="#f9fafe" opacity="0.1"/>
    <path id="Fill_9-2" data-name="Fill 9" d="M15,7.5A7.5,7.5,0,1,1,7.5,0,7.5,7.5,0,0,1,15,7.5" transform="translate(1681.779 3891.652)" fill="#f9fafe" opacity="0.1"/>
    <path id="Fill_14-2" data-name="Fill 14" d="M15,7.5A7.5,7.5,0,1,1,7.5,0,7.5,7.5,0,0,1,15,7.5" transform="translate(1450.099 3947.201)" fill="#f9fafe" opacity="0.1"/>
    <path id="Fill_16-2" data-name="Fill 16" d="M15,7.5A7.5,7.5,0,1,1,7.5,0,7.5,7.5,0,0,1,15,7.5" transform="translate(1510.537 3947.201)" fill="#f9fafe" opacity="0.1"/>
    <path id="Fill_18-2" data-name="Fill 18" d="M15,7.5A7.5,7.5,0,1,1,7.5,0,7.5,7.5,0,0,1,15,7.5" transform="translate(1565.939 3947.201)" fill="#f9fafe" opacity="0.1"/>
    <path id="Fill_20-2" data-name="Fill 20" d="M15,7.5A7.5,7.5,0,1,1,7.5,0,7.5,7.5,0,0,1,15,7.5" transform="translate(1626.377 3947.201)" fill="#f9fafe" opacity="0.1"/>
    <path id="Fill_22-2" data-name="Fill 22" d="M15,7.5A7.5,7.5,0,1,1,7.5,0,7.5,7.5,0,0,1,15,7.5" transform="translate(1681.779 3947.201)" fill="#f9fafe" opacity="0.1"/>
    <path id="Fill_27-2" data-name="Fill 27" d="M15,7.5A7.5,7.5,0,1,1,7.5,0,7.5,7.5,0,0,1,15,7.5" transform="translate(1450.099 4007.8)" fill="#f9fafe" opacity="0.1"/>
    <path id="Fill_29-2" data-name="Fill 29" d="M15,7.5A7.5,7.5,0,1,1,7.5,0,7.5,7.5,0,0,1,15,7.5" transform="translate(1510.537 4007.8)" fill="#f9fafe" opacity="0.1"/>
    <path id="Fill_31-2" data-name="Fill 31" d="M15,7.5A7.5,7.5,0,1,1,7.5,0,7.5,7.5,0,0,1,15,7.5" transform="translate(1565.939 4007.8)" fill="#f9fafe" opacity="0.1"/>
    <path id="Fill_33-2" data-name="Fill 33" d="M15,7.5A7.5,7.5,0,1,1,7.5,0,7.5,7.5,0,0,1,15,7.5" transform="translate(1626.377 4007.8)" fill="#f9fafe" opacity="0.1"/>
    <path id="Fill_35-2" data-name="Fill 35" d="M15,7.5A7.5,7.5,0,1,1,7.5,0,7.5,7.5,0,0,1,15,7.5" transform="translate(1681.779 4007.8)" fill="#f9fafe" opacity="0.1"/>
    <path id="Fill_40-2" data-name="Fill 40" d="M15,7.5A7.5,7.5,0,1,1,7.5,0,7.5,7.5,0,0,1,15,7.5" transform="translate(1450.099 4063.349)" fill="#f9fafe" opacity="0.1"/>
    <path id="Fill_42-2" data-name="Fill 42" d="M15,7.5A7.5,7.5,0,1,1,7.5,0,7.5,7.5,0,0,1,15,7.5" transform="translate(1510.537 4063.349)" fill="#f9fafe" opacity="0.1"/>
    <path id="Fill_44-2" data-name="Fill 44" d="M15,7.5A7.5,7.5,0,1,1,7.5,0,7.5,7.5,0,0,1,15,7.5" transform="translate(1565.939 4063.349)" fill="#f9fafe" opacity="0.1"/>
    <path id="Fill_46-2" data-name="Fill 46" d="M15,7.5A7.5,7.5,0,1,1,7.5,0,7.5,7.5,0,0,1,15,7.5" transform="translate(1626.377 4063.349)" fill="#f9fafe" opacity="0.1"/>
    <path id="Fill_48-2" data-name="Fill 48" d="M15,7.5A7.5,7.5,0,1,1,7.5,0,7.5,7.5,0,0,1,15,7.5" transform="translate(1681.779 4063.349)" fill="#f9fafe" opacity="0.1"/>
    <path id="Fill_53-2" data-name="Fill 53" d="M15,7.5A7.5,7.5,0,1,1,7.5,0,7.5,7.5,0,0,1,15,7.5" transform="translate(1450.099 4123.948)" fill="#f9fafe" opacity="0.1"/>
    <path id="Fill_55-2" data-name="Fill 55" d="M15,7.5A7.5,7.5,0,1,1,7.5,0,7.5,7.5,0,0,1,15,7.5" transform="translate(1510.537 4123.948)" fill="#f9fafe" opacity="0.1"/>
    <path id="Fill_57-2" data-name="Fill 57" d="M15,7.5A7.5,7.5,0,1,1,7.5,0,7.5,7.5,0,0,1,15,7.5" transform="translate(1565.939 4123.948)" fill="#f9fafe" opacity="0.1"/>
    <path id="Fill_59-2" data-name="Fill 59" d="M15,7.5A7.5,7.5,0,1,1,7.5,0,7.5,7.5,0,0,1,15,7.5" transform="translate(1626.377 4123.948)" fill="#f9fafe" opacity="0.1"/>
    <path id="Fill_61-2" data-name="Fill 61" d="M15,7.5A7.5,7.5,0,1,1,7.5,0,7.5,7.5,0,0,1,15,7.5" transform="translate(1681.779 4123.948)" fill="#f9fafe" opacity="0.1"/>
    <path id="Fill_66-2" data-name="Fill 66" d="M15,7.5A7.5,7.5,0,1,1,7.5,0,7.5,7.5,0,0,1,15,7.5" transform="translate(1450.099 4179.497)" fill="#f9fafe" opacity="0.1"/>
    <path id="Fill_68-2" data-name="Fill 68" d="M15,7.5A7.5,7.5,0,1,1,7.5,0,7.5,7.5,0,0,1,15,7.5" transform="translate(1510.537 4179.497)" fill="#f9fafe" opacity="0.1"/>
    <path id="Fill_70-2" data-name="Fill 70" d="M15,7.5A7.5,7.5,0,1,1,7.5,0,7.5,7.5,0,0,1,15,7.5" transform="translate(1565.939 4179.497)" fill="#f9fafe" opacity="0.1"/>
    <path id="Fill_72-2" data-name="Fill 72" d="M15,7.5A7.5,7.5,0,1,1,7.5,0,7.5,7.5,0,0,1,15,7.5" transform="translate(1626.377 4179.497)" fill="#f9fafe" opacity="0.1"/>
    <path id="Fill_74-2" data-name="Fill 74" d="M15,7.5A7.5,7.5,0,1,1,7.5,0,7.5,7.5,0,0,1,15,7.5" transform="translate(1681.779 4179.497)" fill="#f9fafe" opacity="0.1"/>
    <path id="Fill_9_Copy-2" data-name="Fill 9 Copy" d="M15,7.5A7.5,7.5,0,1,1,7.5,0,7.5,7.5,0,0,1,15,7.5" transform="translate(1742.217 3891.652)" fill="#f9fafe" opacity="0.1"/>
    <path id="Fill_22_Copy-2" data-name="Fill 22 Copy" d="M15,7.5A7.5,7.5,0,1,1,7.5,0,7.5,7.5,0,0,1,15,7.5" transform="translate(1742.217 3947.201)" fill="#f9fafe" opacity="0.1"/>
    <path id="Fill_35_Copy-2" data-name="Fill 35 Copy" d="M15,7.5A7.5,7.5,0,1,1,7.5,0,7.5,7.5,0,0,1,15,7.5" transform="translate(1742.217 4007.8)" fill="#f9fafe" opacity="0.1"/>
    <path id="Fill_48_Copy-2" data-name="Fill 48 Copy" d="M15,7.5A7.5,7.5,0,1,1,7.5,0,7.5,7.5,0,0,1,15,7.5" transform="translate(1742.217 4063.349)" fill="#f9fafe" opacity="0.1"/>
    <path id="Fill_61_Copy-2" data-name="Fill 61 Copy" d="M15,7.5A7.5,7.5,0,1,1,7.5,0,7.5,7.5,0,0,1,15,7.5" transform="translate(1742.217 4123.948)" fill="#f9fafe" opacity="0.1"/>
    <path id="Fill_74_Copy-2" data-name="Fill 74 Copy" d="M15,7.5A7.5,7.5,0,1,1,7.5,0,7.5,7.5,0,0,1,15,7.5" transform="translate(1742.217 4179.497)" fill="#f9fafe" opacity="0.1"/>
  </g>
</svg>
