<svg width="67" height="67" viewBox="0 0 67 67" fill="none" xmlns="http://www.w3.org/2000/svg">
<g id="legalHammer">
<path id="blubg" d="M25.1936 65.4791C18.816 63.889 13.0531 60.4435 8.63365 55.5782C4.21421 50.7129 1.33675 44.6463 0.365126 38.1457C-0.606493 31.645 0.371373 25.0022 3.17507 19.0573C5.97876 13.1124 10.4824 8.13241 16.1163 4.74705C21.7503 1.36168 28.2617 -0.276988 34.827 0.0382555C41.3923 0.353499 47.7167 2.6085 53.0004 6.5181C58.2841 10.4277 62.2898 15.8163 64.511 22.0025C66.7322 28.1887 67.0691 34.8946 65.4791 41.2722C64.4234 45.5069 62.5439 49.4921 59.9481 53.0004C57.3522 56.5087 54.0907 59.4713 50.3498 61.7191C46.609 63.9669 42.462 65.4559 38.1457 66.1011C33.8294 66.7462 29.4283 66.5348 25.1936 65.4791V65.4791Z" fill="#1181E8"/>
<g id="hammer">
<path id="Path 677" d="M30.4185 45.0633C30.4185 44.841 30.3771 44.6209 30.2965 44.4155C30.2159 44.2101 30.0978 44.0235 29.9488 43.8663C29.7999 43.7091 29.6232 43.5844 29.4286 43.4994C29.234 43.4143 29.0255 43.3705 28.8149 43.3705H16.709C16.4307 43.3707 16.1573 43.4474 15.9156 43.5929C15.674 43.7384 15.4723 43.9478 15.3305 44.2006C15.1887 44.4533 15.1116 44.7406 15.1068 45.0343C15.102 45.328 15.1697 45.6179 15.3032 45.8756H13V49.3841H32.5278V45.8756H30.2258C30.3538 45.6263 30.4201 45.3469 30.4185 45.0633V45.0633Z" fill="white"/>
<path id="Path 678" d="M28.3571 16.1271L38.5866 22.9843C38.9748 23.1929 39.4228 23.2411 39.8429 23.1197C40.2631 22.9983 40.6253 22.7159 40.8588 22.3277L41.3502 21.5086C41.5993 21.0945 41.6824 20.593 41.5813 20.1143C41.4802 19.6355 41.2031 19.2188 40.8109 18.9557L30.8634 12.2882C30.6693 12.158 30.4528 12.0695 30.2263 12.0277C29.9997 11.9858 29.7676 11.9915 29.5432 12.0444C29.3187 12.0972 29.1063 12.1962 28.9182 12.3358C28.73 12.4753 28.5696 12.6526 28.4464 12.8575L27.9549 13.6766C27.7215 14.0648 27.6333 14.5308 27.7077 14.9838C27.7821 15.4369 28.0136 15.8444 28.3571 16.1271V16.1271Z" fill="white"/>
<path id="Path 679" d="M55.9987 42.3248L55.9909 42.161L55.978 42.0067C55.9715 41.9016 55.9573 41.8074 55.9456 41.7118C55.9024 41.3675 55.8234 41.0291 55.7103 40.703C55.5362 40.1788 55.24 39.7093 54.849 39.3378C54.7597 39.2531 54.6628 39.1794 54.5683 39.1043L54.2825 38.8791C54.0924 38.7275 53.8946 38.5828 53.707 38.4354C53.5195 38.288 53.3191 38.1433 53.1264 37.9999C52.9337 37.8566 52.7384 37.7119 52.5418 37.5712C52.1539 37.2859 51.7581 37.0088 51.3624 36.7317L50.7675 36.3221L50.1701 35.9126C49.7705 35.6395 49.3696 35.3774 48.9661 35.1139C48.5626 34.8504 48.1591 34.5883 47.753 34.3303L46.5322 33.559L45.3036 32.8013L44.0686 32.0546L42.8271 31.3187L41.5791 30.5925L40.326 29.8757C39.907 29.6396 39.488 29.402 39.0664 29.17C38.6448 28.9379 38.2245 28.7031 37.8003 28.4737L37.4123 29.1126L35.4725 28.1502L37.6361 24.5529L27.4066 17.6957L22.085 26.542L32.3144 33.3993L34.478 29.802L36.1269 31.2423L35.7389 31.8812C36.1152 32.1897 36.4941 32.4914 36.8743 32.7945C37.2546 33.0976 37.6335 33.3979 38.015 33.6982L39.1621 34.5911L40.3156 35.4743L41.4795 36.348L42.6435 37.2108L43.8151 38.0627L44.9945 38.9009C45.3886 39.1794 45.7843 39.4547 46.1817 39.7269C46.5788 39.9999 46.9784 40.2729 47.378 40.5378L47.9806 40.9364L48.5859 41.3296C48.9906 41.589 49.3967 41.8483 49.8067 42.0995C50.011 42.2269 50.2162 42.3521 50.4222 42.475C50.6279 42.5992 50.8348 42.7234 51.043 42.8436C51.2512 42.9637 51.4581 43.0879 51.6676 43.204L51.9819 43.3814C52.0866 43.4401 52.1914 43.5016 52.3013 43.5507C52.787 43.766 53.3163 43.8487 53.8403 43.791C54.168 43.7602 54.4915 43.6915 54.805 43.5862C54.8929 43.5575 54.9796 43.5302 55.0727 43.492L55.2098 43.4388L55.3533 43.376C55.5653 43.2816 55.7713 43.1731 55.9702 43.0511C55.9943 42.8098 56.0038 42.5673 55.9987 42.3248V42.3248Z" fill="white"/>
<path id="Path 680" d="M18.9282 32.1351L28.8757 38.8026C29.0698 38.9328 29.2863 39.0213 29.5128 39.0632C29.7394 39.105 29.9715 39.0993 30.1959 39.0465C30.4204 38.9936 30.6328 38.8946 30.821 38.7551C31.0092 38.6156 31.1695 38.4383 31.2928 38.2334L31.7842 37.4143C32.0175 37.0259 32.1054 36.5598 32.0308 36.1067C31.9562 35.6537 31.7245 35.2462 31.3807 34.9638L21.1512 28.1065C20.7629 27.8983 20.3151 27.8502 19.895 27.9716C19.4749 28.093 19.1127 28.3752 18.879 28.7631L18.3889 29.5822C18.2654 29.7872 18.1814 30.0159 18.1416 30.2551C18.1019 30.4944 18.1072 30.7396 18.1573 30.9767C18.2074 31.2138 18.3012 31.4381 18.4335 31.6369C18.5658 31.8357 18.7339 32.005 18.9282 32.1351V32.1351Z" fill="white"/>
</g>
</g>
</svg>
