<svg xmlns="http://www.w3.org/2000/svg" width="100%" height="100%" viewBox="0 0 500 501" fill="none" class="hero-image-three"><g id="HeroThreeStaticCanvas"><g id="eth"><g id="squareThree"><g id="Group" opacity="0.3"><path id="Vector" opacity="0.3" d="M499.946 466.052L497.967 464.833C497.404 468.561 493.399 471.035 490.037 471.547L467.247 486.19L457.304 490.133L425.536 472.13L426.281 471.671C423.558 470.275 422.094 467.095 420.631 464.179L418.491 465.575L417.22 465.978V474.091C417.304 475.012 417.606 475.893 418.096 476.646C418.587 477.4 419.248 477.999 420.016 478.384L451.884 498.56C453.98 499.719 456.294 500.323 458.64 500.323C460.986 500.323 463.3 499.719 465.396 498.56L497.211 478.384C497.965 478.004 498.617 477.419 499.105 476.682C499.592 475.946 499.898 475.083 499.994 474.18C500.002 474.11 500.002 474.038 499.994 473.968H499.946V466.052Z" fill="url(#paint0_linear)"></path><path id="Vector_2" opacity="0.3" d="M467.247 486.196L458.593 489.624V500.33C460.946 500.383 463.271 499.775 465.349 498.563L497.166 478.387C497.919 478.007 498.57 477.421 499.057 476.684C499.544 475.948 499.849 475.086 499.945 474.182C499.952 474.113 499.952 474.041 499.945 473.971V466.055L498.131 464.942H497.938C497.327 468.617 493.37 470.966 490.04 471.55L467.247 486.196Z" fill="#0F054C"></path><path id="Vector_3" opacity="0.3" d="M420.065 470.329C416.333 467.98 416.333 464.128 420.065 461.758L451.885 441.585C453.981 440.426 456.295 439.821 458.641 439.821C460.988 439.821 463.302 440.426 465.397 441.585L497.213 461.761C500.929 464.128 500.929 467.98 497.213 470.332L465.396 490.511C463.303 491.678 460.989 492.286 458.64 492.286C456.292 492.286 453.978 491.678 451.884 490.511L420.065 470.329Z" fill="url(#paint1_linear)"></path><g id="Group_2" opacity="0.3"><path id="Vector_4" opacity="0.3" d="M420.065 470.329C416.333 467.98 416.333 464.128 420.065 461.758L451.885 441.585C453.981 440.426 456.295 439.821 458.641 439.821C460.988 439.821 463.302 440.426 465.397 441.585L497.213 461.761C500.929 464.128 500.929 467.98 497.213 470.332L465.396 490.511C463.303 491.678 460.989 492.286 458.64 492.286C456.292 492.286 453.978 491.678 451.884 490.511L420.065 470.329Z" fill="#0F054C"></path></g></g><path id="Vector_5" d="M458.592 465.01C456.504 465.052 454.44 464.511 452.593 463.438L420.776 443.262C420.024 442.972 419.373 442.432 418.912 441.719C418.453 441.006 418.205 440.152 418.205 439.277C418.205 438.403 418.453 437.549 418.912 436.836C419.373 436.123 420.024 435.583 420.776 435.293L452.592 415.117C454.45 414.088 456.503 413.553 458.584 413.553C460.665 413.553 462.717 414.088 464.575 415.117L496.407 435.293C497.159 435.583 497.81 436.123 498.27 436.836C498.73 437.549 498.978 438.403 498.978 439.277C498.978 440.152 498.73 441.006 498.27 441.719C497.81 442.432 497.159 442.972 496.407 443.262L464.592 463.438C462.809 464.473 460.824 465.014 458.808 465.013L458.592 465.01Z" fill="#42E8E0"></path><path id="Vector_6" opacity="0.4" d="M499.946 419.57L497.967 418.351C497.404 422.096 493.399 424.552 490.037 425.064L467.247 439.708L457.304 443.651L425.536 425.648L426.281 425.188C423.558 423.793 422.094 420.613 420.631 417.697L418.491 419.093L417.22 419.496V431.654C417.304 432.576 417.606 433.456 418.096 434.21C418.587 434.963 419.248 435.562 420.016 435.947L451.884 456.125C453.978 457.292 456.292 457.9 458.64 457.9C460.988 457.9 463.302 457.292 465.396 456.125L497.211 435.947C497.965 435.567 498.617 434.981 499.105 434.245C499.592 433.508 499.899 432.647 499.994 431.742C500.002 431.672 500.002 431.6 499.994 431.53H499.946V419.57Z" fill="#42E8E0"></path><path id="Vector_7" d="M499.946 412.979L497.967 411.76C497.404 415.505 493.399 417.961 490.037 418.473L467.247 433.117L457.304 437.06L425.536 419.056L426.281 418.597C423.558 417.201 422.094 414.021 420.631 411.106L418.491 412.52L417.22 412.905V421.017C417.304 421.939 417.606 422.819 418.096 423.573C418.587 424.326 419.248 424.925 420.016 425.31L451.884 445.487C453.978 446.654 456.292 447.262 458.64 447.262C460.988 447.262 463.302 446.654 465.396 445.487L497.211 425.31C497.965 424.931 498.617 424.345 499.105 423.609C499.592 422.872 499.898 422.01 499.994 421.106C500.002 421.036 500.002 420.964 499.994 420.894H499.946V412.979Z" fill="url(#paint2_linear)"></path><path id="Vector_8" opacity="0.3" d="M467.247 433.119L458.593 436.546V447.253C460.946 447.305 463.271 446.697 465.349 445.485L497.166 425.309C497.919 424.929 498.57 424.343 499.057 423.606C499.544 422.87 499.849 422.008 499.945 421.105C499.952 421.035 499.952 420.963 499.945 420.893V412.978L498.131 411.864H497.938C497.327 415.539 493.37 417.96 490.04 418.472L467.247 433.119Z" fill="#0F054C"></path><path id="Vector_9" d="M420.065 417.22C416.333 414.852 416.333 411.001 420.065 408.648L451.885 388.528C453.979 387.361 456.293 386.752 458.641 386.752C460.989 386.752 463.304 387.361 465.397 388.528L497.213 408.704C500.929 411.053 500.929 414.905 497.213 417.276L465.348 437.396C463.259 438.546 460.954 439.145 458.617 439.145C456.28 439.145 453.975 438.546 451.885 437.396L420.065 417.22Z" fill="url(#paint3_linear)"></path><path id="Vector_10" d="M465.348 437.394C463.252 438.553 460.938 439.157 458.592 439.157C456.246 439.157 453.932 438.553 451.836 437.394L420.016 417.218C419.323 416.857 418.714 416.328 418.236 415.67C417.756 415.012 417.42 414.241 417.253 413.419C417.028 415.186 417.961 416.952 420.016 418.189L451.884 438.419C453.978 439.586 456.292 440.194 458.64 440.194C460.988 440.194 463.303 439.586 465.396 438.419L497.213 418.242C498.063 417.854 498.783 417.188 499.275 416.334C499.767 415.48 500.008 414.481 499.964 413.472C499.792 414.297 499.451 415.07 498.965 415.728C498.48 416.386 497.864 416.914 497.164 417.271L465.348 437.394Z" fill="white"></path><path id="Vector_11" d="M365.511 361.955L343.428 373.442H343.17L300.159 350.588L300.416 350.004L343.428 372.746L365.511 361.259L366.024 361.491L435.23 398.851L434.973 399.434L365.511 361.955Z" fill="url(#paint4_linear)"></path></g><g id="squareTwo"><g id="Group_3" opacity="0.3"><path id="Vector_12" opacity="0.3" d="M82.7817 465.193L80.7854 463.974C80.2225 467.719 76.2156 470.176 72.868 470.688L50.0486 485.332L40.1031 489.274L8.32039 471.271L9.06066 470.812C6.34054 469.416 4.87637 466.236 3.41124 463.32L1.27138 464.734L0 465.119V473.232C0.0838133 474.153 0.385977 475.034 0.876407 475.787C1.36684 476.541 2.02843 477.14 2.79531 477.525L34.632 497.701C36.7264 498.868 39.0421 499.477 41.3908 499.477C43.7396 499.477 46.0553 498.868 48.1497 497.701L79.9806 477.525C80.7376 477.148 81.3933 476.563 81.884 475.826C82.3747 475.09 82.684 474.226 82.7817 473.321V473.109V465.193Z" fill="url(#paint5_linear)"></path><path id="Vector_13" opacity="0.3" d="M50.0462 485.367L41.3884 488.794V499.501C43.7418 499.553 46.0684 498.945 48.1473 497.733L79.9792 477.557C80.7362 477.18 81.3917 476.595 81.8823 475.858C82.3728 475.121 82.6817 474.258 82.7793 473.352V465.226L80.944 464.112H80.7512C80.1372 467.752 76.1853 470.173 72.8656 470.72L50.0462 485.367Z" fill="#0F054C"></path><path id="Vector_14" opacity="0.3" d="M2.79989 469.486C-0.933295 467.118 -0.933295 463.266 2.79989 460.914L34.6317 440.688C36.7262 439.521 39.0419 438.912 41.3906 438.912C43.7393 438.912 46.055 439.521 48.1495 440.688L79.9813 460.864C83.6991 463.213 83.6991 467.065 79.9813 469.436L48.1495 489.662C46.0528 490.821 43.738 491.424 41.3906 491.424C39.0432 491.424 36.7284 490.821 34.6317 489.662L2.79989 469.486Z" fill="url(#paint6_linear)"></path><g id="Group_4" opacity="0.3"><path id="Vector_15" opacity="0.3" d="M2.79989 469.486C-0.933295 467.118 -0.933295 463.266 2.79989 460.914L34.6317 440.688C36.7262 439.521 39.0419 438.912 41.3906 438.912C43.7393 438.912 46.055 439.521 48.1495 440.688L79.9813 460.864C83.6991 463.213 83.6991 467.065 79.9813 469.436L48.1495 489.662C46.0528 490.821 43.738 491.424 41.3906 491.424C39.0432 491.424 36.7284 490.821 34.6317 489.662L2.79989 469.486Z" fill="#0F054C"></path></g></g><path id="Vector_16" d="M41.3961 460.301C39.3053 460.35 37.2379 459.81 35.3929 458.728L3.55721 438.551C2.81088 438.258 2.16535 437.718 1.70896 437.007C1.25257 436.295 1.00761 435.446 1.00761 434.575C1.00761 433.705 1.25257 432.856 1.70896 432.144C2.16535 431.433 2.81088 430.893 3.55721 430.6L35.389 410.424C37.2491 409.387 39.3057 408.847 41.3917 408.847C43.4778 408.847 45.5344 409.387 47.3944 410.424L79.2262 430.6C79.9726 430.893 80.6181 431.433 81.0745 432.144C81.5309 432.856 81.7759 433.705 81.7759 434.575C81.7759 435.446 81.5309 436.295 81.0745 437.007C80.6181 437.718 79.9726 438.258 79.2262 438.551L47.3944 458.727C45.6286 459.762 43.6578 460.303 41.6563 460.303L41.3961 460.301Z" fill="#42E8E0"></path><path id="Vector_17" opacity="0.4" d="M82.7817 414.856L80.7854 413.637C80.2225 417.382 76.2156 419.838 72.868 420.351L50.0486 434.998L40.1031 438.921L8.32039 420.917L9.06066 420.458C6.34054 419.062 4.87637 415.882 3.41124 412.966L1.27138 414.38L0 414.765V426.935C0.0769468 427.857 0.376621 428.738 0.868047 429.49C1.35948 430.242 2.02482 430.836 2.79531 431.21L34.632 451.394C36.7264 452.561 39.0421 453.169 41.3908 453.169C43.7396 453.169 46.0553 452.561 48.1497 451.394L79.9806 431.217C80.7376 430.84 81.3931 430.255 81.8836 429.517C82.3742 428.781 82.6832 427.917 82.7807 427.011V414.856H82.7817Z" fill="#42E8E0"></path><path id="Vector_18" d="M82.7817 408.268L80.7854 407.048C80.2225 410.794 76.2156 413.25 72.8709 413.762L50.0486 428.409L40.1031 432.349L8.32039 414.35L9.06066 413.886C6.34054 412.49 4.87637 409.31 3.41124 406.413L1.27138 407.809L0 408.197V416.324C0.0865472 417.243 0.389973 418.12 0.880249 418.869C1.37052 419.62 2.03066 420.215 2.79531 420.599L34.632 440.777C36.7264 441.944 39.0421 442.552 41.3908 442.552C43.7396 442.552 46.0553 441.944 48.1497 440.777L79.9806 420.599C80.7376 420.223 81.3931 419.638 81.8836 418.9C82.3742 418.163 82.6832 417.3 82.7807 416.394V416.182L82.7817 408.268Z" fill="url(#paint7_linear)"></path><path id="Vector_19" d="M2.79989 412.563C-0.933295 410.196 -0.933295 406.344 2.79989 403.991L34.6317 383.818C36.7262 382.651 39.0419 382.042 41.3906 382.042C43.7393 382.042 46.055 382.651 48.1495 383.818L79.9813 403.994C83.6991 406.362 83.6991 410.196 79.9813 412.566L48.1495 432.739C46.055 433.906 43.7393 434.515 41.3906 434.515C39.0419 434.515 36.7262 433.906 34.6317 432.739L2.79989 412.563Z" fill="url(#paint8_linear)"></path><path id="Vector_20" d="M41.3884 429.061C39.5 429.108 37.6324 428.621 35.9645 427.648L11.1017 411.888C10.422 411.624 9.83378 411.134 9.41778 410.487C9.00179 409.84 8.77844 409.067 8.77844 408.276C8.77844 407.484 9.00179 406.712 9.41778 406.064C9.83378 405.417 10.422 404.927 11.1017 404.663L35.9645 388.903C37.6442 387.963 39.5027 387.473 41.3879 387.473C43.2731 387.473 45.1316 387.963 46.8113 388.903L71.6751 404.663C72.3548 404.927 72.943 405.417 73.3591 406.064C73.7751 406.712 73.9984 407.484 73.9984 408.276C73.9984 409.067 73.7751 409.84 73.3591 410.487C72.943 411.134 72.3548 411.624 71.6751 411.888L46.8113 427.648C45.2176 428.577 43.4405 429.062 41.6361 429.061H41.3884Z" fill="#5351AF"></path><path id="Vector_21" d="M48.1473 432.739C46.0528 433.906 43.7372 434.513 41.3884 434.513C39.0397 434.513 36.724 433.906 34.6296 432.739L2.79769 412.563C2.10325 412.203 1.49297 411.673 1.01351 411.014C0.532439 410.356 0.194815 409.587 0.0264826 408.764C-0.0101757 409.776 0.235473 410.777 0.730634 411.633C1.22579 412.488 1.94691 413.158 2.79769 413.552L34.6305 433.728C36.7272 434.887 39.042 435.491 41.3894 435.491C43.7368 435.491 46.0516 434.887 48.1483 433.728L79.9791 413.552C80.8286 413.158 81.5479 412.488 82.0396 411.632C82.5314 410.776 82.772 409.775 82.7292 408.764C82.5649 409.586 82.2316 410.355 81.7546 411.013C81.2782 411.672 80.6708 412.202 79.9791 412.563L48.1473 432.739Z" fill="white"></path><path id="Vector_22" d="M134.21 375.916L151.48 384.621L151.68 384.621L185.098 366.924L184.894 366.481L151.477 384.088L134.207 375.386L133.808 375.566L80.0423 404.483L80.2456 404.927L134.21 375.916Z" fill="url(#paint9_linear)"></path></g><g id="squareOne"><g id="Group_5" opacity="0.3"><path id="Vector_23" opacity="0.3" d="M499.091 145.005L497.097 143.786C496.534 147.514 492.531 149.987 489.187 150.5L466.389 165.129L456.453 169.086L424.7 151.083L425.439 150.605C422.723 149.228 421.26 146.03 419.797 143.132L417.659 144.528L416.388 144.916V153.044C416.463 153.965 416.762 154.848 417.254 155.6C417.745 156.353 418.412 156.945 419.184 157.319L450.986 177.496C453.079 178.663 455.392 179.272 457.739 179.272C460.086 179.272 462.399 178.663 464.492 177.496L496.296 157.319C497.051 156.941 497.707 156.356 498.196 155.619C498.686 154.882 498.994 154.019 499.091 153.113V152.92V145.005Z" fill="url(#paint10_linear)"></path><path id="Vector_24" opacity="0.3" d="M466.389 165.13L457.738 168.576V179.282C460.089 179.335 462.414 178.726 464.491 177.515L496.295 157.34C497.05 156.962 497.706 156.377 498.195 155.64C498.685 154.902 498.992 154.04 499.09 153.134V145.025L497.273 143.912H497.08C496.437 147.569 492.498 149.989 489.186 150.501L466.389 165.13Z" fill="#0F054C"></path><path id="Vector_25" opacity="0.3" d="M419.262 149.282C415.532 146.915 415.532 143.081 419.262 140.71L450.985 120.466C453.078 119.299 455.391 118.691 457.737 118.691C460.084 118.691 462.398 119.299 464.49 120.466L496.29 140.643C500.021 143.01 500.021 146.844 496.29 149.214L464.489 169.387C462.403 170.565 460.091 171.186 457.745 171.198C455.398 171.211 453.082 170.615 450.984 169.458L419.262 149.282Z" fill="url(#paint11_linear)"></path><g id="Group_6" opacity="0.3"><path id="Vector_26" opacity="0.3" d="M419.262 149.282C415.532 146.915 415.532 143.081 419.262 140.71L450.985 120.466C453.078 119.299 455.391 118.691 457.738 118.691C460.084 118.691 462.398 119.299 464.49 120.466L496.29 140.643C500.021 143.01 500.021 146.844 496.29 149.214L464.489 169.387C462.403 170.565 460.091 171.186 457.745 171.198C455.398 171.211 453.082 170.615 450.984 169.458L419.262 149.282Z" fill="#0F054C"></path></g></g><path id="Vector_27" d="M457.74 145.292C455.652 145.333 453.589 144.792 451.744 143.719L419.943 123.543C419.192 123.253 418.541 122.713 418.08 122C417.621 121.287 417.373 120.434 417.373 119.559C417.373 118.685 417.621 117.832 418.08 117.118C418.541 116.405 419.192 115.865 419.943 115.575L451.743 95.3982C453.603 94.3696 455.657 93.8341 457.74 93.8341C459.823 93.8341 461.877 94.3696 463.737 95.3982L495.537 115.575C496.288 115.865 496.939 116.405 497.4 117.118C497.86 117.832 498.107 118.685 498.107 119.559C498.107 120.434 497.86 121.287 497.4 122C496.939 122.713 496.288 123.253 495.537 123.543L463.737 143.719C461.958 144.753 459.976 145.294 457.964 145.294L457.74 145.292Z" fill="#42E8E0"></path><path id="Vector_28" opacity="0.4" d="M499.091 99.8444L497.097 98.6284C496.534 102.357 492.531 104.83 489.187 105.342L466.389 119.989L456.453 124L424.7 105.996L425.439 105.537C422.723 104.141 421.26 100.961 419.797 98.0454L417.659 99.4412L416.388 99.8444V112.002C416.49 112.921 416.81 113.794 417.315 114.535C417.82 115.275 418.492 115.858 419.266 116.225L450.986 136.366C453.079 137.533 455.392 138.142 457.739 138.142C460.086 138.142 462.399 137.533 464.492 136.366L496.296 116.19C497.051 115.812 497.707 115.227 498.196 114.49C498.686 113.753 498.994 112.89 499.091 111.984V99.8444Z" fill="#42E8E0"></path><path id="Vector_29" d="M499.091 93.2598L497.097 92.0407C496.534 95.7689 492.531 98.242 489.187 98.7542L466.389 113.4L456.453 117.34L424.7 99.2663L425.439 98.8071C422.723 97.4113 421.26 94.2313 419.797 91.3158L417.659 92.7117L416.388 93.1148V101.227C416.472 102.149 416.774 103.029 417.264 103.783C417.755 104.536 418.416 105.135 419.184 105.52L450.986 125.768C453.081 126.926 455.393 127.531 457.739 127.531C460.085 127.531 462.397 126.926 464.492 125.768L496.296 105.591C497.051 105.214 497.707 104.628 498.196 103.892C498.686 103.154 498.994 102.292 499.091 101.386V93.2598Z" fill="url(#paint12_linear)"></path><path id="Vector_30" opacity="0.3" d="M466.389 113.4L457.738 116.828V127.534C460.089 127.587 462.414 126.978 464.491 125.767L496.294 105.59C497.05 105.213 497.706 104.627 498.195 103.891C498.685 103.153 498.992 102.291 499.09 101.385V93.2588L497.273 92.1455H497.08C496.437 95.8207 492.498 98.2409 489.186 98.7531L466.389 113.4Z" fill="#0F054C"></path><path id="Vector_31" d="M455.588 79.8298C456.259 79.4595 456.999 79.2669 457.751 79.2669C458.502 79.2669 459.242 79.4595 459.913 79.8298L489.51 98.6124L489.188 98.824C492.532 98.3118 496.536 95.8377 497.098 92.1106L463.866 71.7915L454.221 68.9819L446.343 74.0699L419.816 91.4556C421.261 94.3001 422.726 97.4981 425.443 98.8759L455.588 79.8298Z" fill="url(#paint13_linear)"></path><path id="Vector_32" opacity="0.3" d="M454.206 68.9148L446.328 74.0028L419.8 91.3885C421.264 94.3029 422.727 97.4871 425.443 98.8797L455.588 79.8315C456.246 79.4326 456.99 79.2315 457.742 79.2485V69.9572L454.206 68.9148Z" fill="#0F054C"></path><path id="Vector_33" d="M450.993 117.711L419.27 97.4989C415.54 95.1485 415.54 91.2976 419.27 88.9272L451.074 68.7541C453.168 67.5952 455.481 66.9916 457.826 66.9916C460.171 66.9916 462.483 67.5952 464.578 68.7541L496.382 88.9304C500.111 91.2976 500.111 95.1496 496.382 97.502L464.573 117.68C462.473 118.868 460.146 119.49 457.784 119.496H457.752C455.402 119.494 453.086 118.883 450.993 117.711Z" fill="url(#paint14_linear)"></path><path id="Vector_34" d="M459.909 71.7024C459.238 71.3325 458.498 71.1399 457.746 71.1399C456.995 71.1399 456.255 71.3325 455.584 71.7024L423.784 91.8808C422.98 92.3909 422.723 93.0978 422.98 93.7517C423.161 93.375 423.441 93.0671 423.784 92.8681L455.585 72.7617C456.256 72.3918 456.996 72.1992 457.748 72.1992C458.499 72.1992 459.239 72.3918 459.91 72.7617L491.706 92.939C492.045 93.138 492.319 93.447 492.494 93.8226C492.616 93.4501 492.603 93.0396 492.456 92.6776C492.31 92.3157 492.041 92.03 491.706 91.8808L459.909 71.7024Z" fill="white"></path><path id="Vector_35" d="M464.493 117.674C462.4 118.841 460.087 119.45 457.74 119.45C455.394 119.45 453.08 118.841 450.988 117.674L419.267 97.4979C418.573 97.1434 417.962 96.6175 417.482 95.9624C417.001 95.3063 416.665 94.538 416.498 93.7169C416.464 94.7253 416.708 95.7222 417.202 96.5741C417.696 97.4238 418.416 98.0884 419.263 98.4789L450.984 118.691C453.076 119.858 455.39 120.467 457.736 120.467C460.083 120.467 462.396 119.858 464.489 118.691L496.293 98.5223C497.14 98.1318 497.859 97.4672 498.354 96.6175C498.847 95.7656 499.092 94.7687 499.057 93.7602C498.887 94.574 498.549 95.3338 498.07 95.9825C497.591 96.6323 496.983 97.1519 496.292 97.5032L464.493 117.674Z" fill="white"></path><path id="Vector_36" d="M451.893 117.147L420.09 96.9705C416.874 94.9207 416.874 91.6699 420.09 89.5502L451.893 69.3729C453.704 68.3558 455.71 67.8254 457.745 67.8254C459.779 67.8254 461.785 68.3558 463.596 69.3729L495.397 89.5502C498.613 91.599 498.613 94.8509 495.397 96.9705L463.596 117.147C461.785 118.164 459.779 118.694 457.745 118.694C455.71 118.694 453.704 118.164 451.893 117.147Z" fill="url(#paint15_linear)"></path><path id="Vector_37" opacity="0.4" d="M457.753 71.1399C457.002 71.1401 456.262 71.3329 455.591 71.7029L423.79 91.8812C423.527 91.9765 423.297 92.1617 423.135 92.4082C422.972 92.6548 422.884 92.9522 422.884 93.2569C422.884 93.5617 422.972 93.8591 423.135 94.1056C423.297 94.3522 423.527 94.5374 423.79 94.6326L455.591 114.812C456.262 115.182 457.002 115.375 457.754 115.375C458.505 115.375 459.245 115.182 459.916 114.812L491.716 94.6326C491.973 94.5289 492.193 94.3416 492.35 94.095C492.506 93.8495 492.589 93.5564 492.589 93.2569C492.589 92.9574 492.506 92.6643 492.35 92.4188C492.193 92.1722 491.973 91.9849 491.716 91.8812L459.915 71.7029C459.244 71.3329 458.504 71.1401 457.753 71.1399Z" fill="#42E8E0"></path><path id="Vector_38" d="M362.231 178.768L362.223 207.93L362.089 208.185L316.81 236.295L316.36 235.67L361.526 207.488L361.534 178.325L362.034 177.964L435.477 133.109L435.927 133.735L362.231 178.768Z" fill="url(#paint16_linear)"></path></g><g id="bars"><path id="Vector_39" opacity="0.5" d="M402.384 269.359V301L389.915 293.09V261.435L402.384 269.359Z" fill="#758EF5"></path><path id="Vector_40" opacity="0.2" d="M389.919 277.269V293.09L377.45 285.179V269.359L389.919 277.269Z" fill="#758EF5"></path><path id="Vector_41" opacity="0.5" d="M377.446 221.884V285.179L364.977 277.268V213.96L377.446 221.884Z" fill="#758EF5"></path><path id="Vector_42" opacity="0.2" d="M364.978 198.141V277.27L352.496 269.36V190.23L364.978 198.141Z" fill="#758EF5"></path><path id="Vector_43" opacity="0.5" d="M352.5 206.052V269.361L340.031 261.437V198.142L352.5 206.052Z" fill="#758EF5"></path><path id="Vector_44" opacity="0.2" d="M340.027 150.665V261.435L327.558 253.524V142.755L340.027 150.665Z" fill="#758EF5"></path><path id="Vector_45" opacity="0.5" d="M327.562 158.577V253.526L315.093 245.615V150.666L327.562 158.577Z" fill="#758EF5"></path><path id="Vector_46" opacity="0.2" d="M315.089 166.488V245.617L302.62 237.707V158.577L315.089 166.488Z" fill="#758EF5"></path><path id="Vector_47" opacity="0.5" d="M302.62 126.937V237.707L290.139 229.796V119.013L302.62 126.937Z" fill="#758EF5"></path><path id="Vector_48" opacity="0.2" d="M290.143 87.372V229.795L277.674 221.871V79.4617L290.143 87.372Z" fill="#758EF5"></path><path id="Vector_49" opacity="0.5" d="M277.67 95.2831V221.874L265.201 213.963V87.3728L277.67 95.2831Z" fill="#758EF5"></path><path id="Vector_50" opacity="0.2" d="M265.204 55.719V213.963L252.735 206.052V47.8087L265.204 55.719Z" fill="#758EF5"></path><path id="Vector_51" opacity="0.5" d="M252.728 47.8078V206.051L240.247 198.141V39.8975L252.728 47.8078Z" fill="#758EF5"></path><path id="Vector_52" opacity="0.2" d="M240.25 8.24365V198.142L227.781 190.232V0.333374L240.25 8.24365Z" fill="#758EF5"></path></g><path id="Vector_53" opacity="0.4" d="M240.031 418.396C176.938 418.396 125.791 385.948 125.791 345.92C125.791 305.893 176.938 273.444 240.031 273.444C303.124 273.444 354.27 305.893 354.27 345.92C354.27 385.948 303.124 418.396 240.031 418.396Z" fill="#0F054C"></path><path id="Vector_54" d="M240.031 389.577C168.22 389.577 110.005 352.645 110.005 307.09C110.005 261.535 168.22 224.599 240.031 224.599C311.841 224.599 370.056 261.531 370.056 307.09C370.056 352.649 311.846 389.577 240.031 389.577Z" fill="url(#paint17_linear)"></path><path id="Vector_55" opacity="0.48" d="M366.86 279.925C361.641 265.234 350.02 251.264 331.985 239.838C281.208 207.619 198.87 207.619 148.162 239.838C131.13 250.643 119.881 263.694 114.213 277.495H110.138V295.787C109.122 317.693 121.801 339.815 148.162 356.53C198.938 388.735 281.277 388.735 332.048 356.53C357.436 340.409 370.142 319.306 370.142 298.189L370.077 279.925H366.86Z" fill="url(#paint18_linear)"></path><path id="Vector_56" opacity="0.48" d="M366.279 271.307V259.29H359.467V258.429C357.687 255.804 355.755 253.309 353.683 250.956V259.29H349.828V246.815C348.019 245.006 346.083 243.236 344.017 241.503V259.315H340.162V238.337C338.297 236.924 336.306 235.512 334.325 234.185V259.245H330.469V231.7C328.567 230.523 326.617 229.394 324.621 228.314V259.245H320.765V226.347C318.837 225.405 316.883 224.464 314.903 223.522V259.245H311.048V230.358H305.173V259.29H301.317V238.337H295.411V259.329H291.556V246.274H285.642V259.329H281.859V254.23H275.984V259.329H204.173V254.23H198.243V259.329H194.464V246.274H188.577V259.329H184.721V238.337H178.818V259.329H174.962V230.358H169.088V259.29H165.233V223.536C163.253 224.421 161.299 225.363 159.371 226.361V259.329H155.516V228.324C153.523 229.412 151.57 230.527 149.667 231.7V259.29H145.811V234.187C143.78 235.527 141.834 236.906 139.975 238.325V259.29H136.119V241.432C134.05 243.155 132.121 244.935 130.309 246.744V259.29H126.453V250.812C124.389 253.166 122.458 255.657 120.67 258.27V259.216H113.851V270.304H110.959V300.97C112.087 306.695 114.035 312.188 116.731 317.242V298.127H120.665V323.797C122.445 326.412 124.377 328.897 126.448 331.24V298.127H130.304V335.39C132.116 337.189 134.057 338.963 136.114 340.686V298.127H139.97V343.794C141.838 345.205 143.783 346.589 145.806 347.947V298.127H149.662V350.39C151.565 351.549 153.515 352.674 155.511 353.766V298.127H159.367V355.801C161.294 356.743 163.248 357.684 165.228 358.626V298.174H169.084V360.325C171.011 361.13 172.939 361.893 174.959 362.627V298.127H178.814V363.865C180.768 364.529 182.67 365.151 184.714 365.744V298.127H188.57V366.874C190.524 367.397 192.491 367.905 194.483 368.371V298.174H198.263V369.24C200.229 369.664 202.209 370.046 204.201 370.413V298.127H207.967V370.999C209.934 371.324 211.927 371.606 213.919 371.875V298.127H217.663V372.33C219.643 372.542 221.636 372.726 223.639 372.895V298.127H227.354V373.156C229.359 373.269 231.353 373.367 233.357 373.438V298.127H237.06V373.527H243.114V298.127H246.816V373.443C248.821 373.443 250.815 373.273 252.82 373.16V298.127H256.534V372.891C258.539 372.722 260.533 372.538 262.511 372.312V298.127H266.252V371.86C268.244 371.606 270.236 371.309 272.204 370.999V298.127H275.983V370.349C277.975 369.996 279.955 369.601 281.922 369.177V298.127H285.701V368.288C287.694 367.807 289.661 367.313 291.615 366.777V298.127H295.47V365.73C297.45 365.136 299.416 364.501 301.37 363.852V298.127H305.226V362.499C307.206 361.779 309.172 361.087 311.101 360.211V298.127H314.956V358.552C316.936 357.662 318.89 356.744 320.818 355.727V298.127H324.674V353.766C326.67 352.674 328.62 351.549 330.523 350.39V298.127H334.378V347.918C336.409 346.562 338.355 345.173 340.215 343.751V298.127H344.07V340.644C346.126 338.902 348.064 337.131 349.881 335.332V298.127H353.736V331.194C355.811 328.844 357.743 326.349 359.52 323.721V298.127H363.389V317.186C366.106 312.087 368.056 306.54 369.16 300.758V272.847L366.847 272.833C366.673 272.324 366.484 271.816 366.279 271.307Z" fill="url(#paint19_linear)"></path><path id="Vector_57" d="M240.031 355.351C168.22 355.351 110.005 318.419 110.005 272.864C110.005 227.309 168.22 190.373 240.031 190.373C311.841 190.373 370.056 227.305 370.056 272.864C370.056 318.423 311.846 355.351 240.031 355.351Z" fill="url(#paint20_linear)"></path><path id="Vector_58" opacity="0.3" d="M157.174 209.242L118.379 301.903C124.703 312.567 134.589 322.554 148.099 331.128C156.818 336.583 166.023 341.041 175.57 344.434L240.088 190.314C210.624 190.314 181.162 196.628 157.174 209.242ZM209.775 353.092C225.903 355.499 242.222 355.973 258.444 354.505L319.876 207.759C306.029 201.054 291.458 196.321 276.517 193.676L209.775 353.092Z" fill="#91A2FA"></path><g id="coin" opacity="0.05"><path id="Vector_59" opacity="0.05" d="M240.035 345.919C176.438 345.919 124.883 313.211 124.883 272.864C124.883 232.517 176.438 199.809 240.035 199.809C303.632 199.809 355.188 232.517 355.188 272.864C355.188 313.211 303.632 345.919 240.035 345.919Z" fill="url(#paint21_linear)"></path><g id="Group_7" opacity="0.05"><path id="Vector_60" opacity="0.05" d="M33.1138 271.761L233.725 144.494L234.958 145.285L34.3476 272.553L33.1138 271.761ZM36.6484 274.007L237.259 146.74L238.493 147.516L37.8822 274.786L36.6484 274.007ZM40.184 276.253L240.795 148.986L242.029 149.763L41.4178 277.032L40.184 276.253ZM43.7186 278.499L244.329 151.232L245.563 152.009L44.9524 279.278L43.7186 278.499ZM47.2542 280.731L247.865 153.464L249.099 154.254L48.488 281.522L47.2542 280.731ZM50.7888 282.976L251.4 155.709L252.633 156.486L52.0226 283.755L50.7888 282.976ZM54.3244 285.222L254.935 157.955L256.156 158.732L55.5582 286.001L54.3244 285.222ZM57.8591 287.469L258.47 160.201L259.691 160.978L59.0928 288.247L57.8591 287.469ZM61.3946 289.7L262.005 162.433L263.227 163.21L62.6284 290.492L61.3946 289.7ZM64.9293 291.946L265.54 164.679L266.761 165.456L66.1631 292.725L64.9293 291.946ZM68.4639 294.191L269.075 166.924L270.296 167.701L69.6851 294.97L68.4639 294.191ZM71.9995 296.438L272.61 169.171L273.832 169.948L73.2207 297.217L71.9995 296.438ZM75.5341 298.669L276.145 171.402L277.366 172.178L76.7554 299.448L75.5341 298.669ZM79.0697 300.915L279.68 173.648L280.902 174.425L80.2909 301.694L79.0697 300.915ZM82.6043 303.161L283.215 175.894L284.436 176.671L83.8256 303.94L82.6043 303.161ZM86.1274 305.408L286.738 178.126L287.972 178.916L87.3612 306.184L86.1274 305.408ZM89.662 307.639L290.273 180.372L291.507 181.149L90.8958 308.431L89.662 307.639ZM93.1976 309.885L293.808 182.618L295.042 183.395L94.4314 310.664L93.1976 309.885ZM96.7322 312.131L297.343 184.863L298.577 185.64L97.966 312.909L96.7322 312.131ZM100.267 314.362L300.878 187.095L302.111 187.886L101.501 315.154L100.267 314.362ZM103.802 316.608L304.413 189.341L305.647 190.118L105.036 317.387L103.802 316.608ZM107.337 318.855L307.948 191.587L309.182 192.364L108.571 319.633L107.337 318.855ZM110.873 321.1L311.483 193.833L312.717 194.61L112.106 321.879L110.873 321.1ZM114.407 323.347L315.018 196.065L316.252 196.855L115.641 324.124L114.407 323.347ZM117.943 325.578L318.554 198.31L319.787 199.087L119.177 326.356L117.943 325.578ZM121.477 327.823L322.088 200.556L323.31 201.333L122.711 328.602L121.477 327.823ZM125.013 330.07L325.624 202.803L326.845 203.579L126.247 330.849L125.013 330.07ZM128.548 332.302L329.158 205.034L330.38 205.825L129.769 333.093L128.548 332.302ZM132.082 334.547L332.693 207.28L333.914 208.057L133.304 335.326L132.082 334.547ZM135.618 336.793L336.229 209.526L337.45 210.302L136.839 337.571L135.618 336.793ZM139.152 339.038L339.763 211.771L340.985 212.548L140.374 339.817L139.152 339.038ZM142.688 341.271L343.299 214.004L344.52 214.781L143.909 342.063L142.688 341.271ZM146.223 343.517L346.82 216.25L348.054 217.026L147.444 344.295L146.223 343.517ZM149.757 345.762L350.368 218.495L351.589 219.272L150.979 346.541L149.757 345.762ZM153.293 348.01L353.89 220.728L355.124 221.518L154.514 348.787L153.293 348.01ZM156.828 350.241L357.425 222.974L358.659 223.764L158.049 351.032L156.828 350.241ZM160.351 352.486L360.961 225.219L362.195 225.996L161.584 353.265L160.351 352.486ZM163.885 354.733L364.496 227.466L365.73 228.242L165.119 355.512L163.885 354.733ZM167.421 356.978L368.032 229.696L369.265 230.487L168.655 357.755L167.421 356.978ZM170.955 359.21L371.566 231.943L372.8 232.734L172.189 360.002L170.955 359.21ZM174.49 361.456L375.101 234.189L376.335 234.965L175.724 362.235L174.49 361.456ZM178.027 363.701L378.637 236.434L379.871 237.211L179.26 364.48L178.027 363.701ZM181.56 365.948L382.171 238.681L383.405 239.458L182.794 366.727L181.56 365.948ZM185.096 368.18L385.707 240.913L386.94 241.689L186.33 368.971L185.096 368.18ZM188.631 370.425L389.242 243.158L390.476 243.935L189.865 371.204L188.631 370.425ZM192.166 372.671L392.777 245.404L394.011 246.181L193.4 373.45L192.166 372.671ZM195.701 374.918L396.311 247.636L397.545 248.426L196.934 375.694L195.701 374.918ZM199.235 377.148L399.846 249.881L401.067 250.658L200.469 377.927L199.235 377.148ZM202.771 379.395L403.382 252.128L404.603 252.905L204.005 380.174L202.771 379.395ZM206.306 381.64L406.916 254.373L408.138 255.15L207.527 382.419L206.306 381.64ZM209.84 383.887L410.451 256.605L411.672 257.396L211.061 384.664L209.84 383.887ZM213.377 386.118L413.987 258.851L415.209 259.627L214.598 386.897L213.377 386.118ZM216.911 388.363L417.522 261.096L418.743 261.873L218.133 389.142L216.911 388.363ZM220.446 390.61L421.057 263.343L422.278 264.12L221.667 391.389L220.446 390.61ZM223.968 392.842L424.579 265.575L425.813 266.365L225.202 393.633L223.968 392.842ZM227.503 395.087L428.113 267.82L429.347 268.597L228.736 395.866L227.503 395.087ZM231.038 397.333L431.649 270.066L432.883 270.843L232.272 398.112L231.038 397.333ZM234.573 399.58L435.184 272.312L436.417 273.089L235.807 400.358L234.573 399.58ZM238.107 401.81L438.718 274.543L439.952 275.334L239.341 402.602L238.107 401.81ZM241.643 404.058L442.254 276.791L443.488 277.568L242.877 404.837L241.643 404.058ZM245.177 406.304L445.788 279.037L447.021 279.813L246.411 407.082L245.177 406.304Z" fill="#91A2FA"></path></g></g><path id="Vector_61" d="M321.469 226.125C342.964 239.769 354.171 257.455 355.122 275.323C356.151 255.816 344.941 236.097 321.469 221.209C276.478 192.676 203.578 192.676 158.613 221.209C135.14 236.097 123.905 255.815 124.958 275.323C125.91 257.455 137.157 239.756 158.612 226.125C203.604 197.606 276.49 197.606 321.469 226.125Z" fill="url(#paint22_linear)"></path><path id="Vector_62" d="M241.64 198.9C238.96 198.9 236.318 198.204 233.929 196.87C229.661 194.172 229.661 189.807 233.929 187.081C236.318 185.747 238.96 185.051 241.64 185.051C244.321 185.051 246.963 185.747 249.351 187.081C253.606 189.778 253.606 194.171 249.351 196.87C246.963 198.204 244.321 198.9 241.64 198.9Z" fill="#97A6FC"></path><path id="Vector_63" opacity="0.2" d="M171.581 251.235C166.499 248.061 161.756 244.271 157.444 239.935L139.997 243.745C145.608 249.809 151.922 255.035 158.778 259.287C188.228 277.959 229.479 284.599 267.297 279.216L257.091 268.863C226.87 271.872 194.861 266.038 171.581 251.235Z" fill="#91A2FA"></path><g id="ethereum"><path id="Path 3351" d="M274.59 252.094L191.309 240.777L209.163 293.566L263.387 286.465L274.59 252.094Z" fill="#654CB2"></path><path id="Path 3352" opacity="0.4" d="M209.164 293.566L231.949 255.011L263.389 286.465L209.164 293.566Z" fill="#0F054C"></path><path id="Path 3353" opacity="0.4" d="M274.591 252.095L231.949 255.011L263.389 286.465L274.591 252.095Z" fill="#0F054C"></path><path id="Path 3354" opacity="0.58" d="M274.59 252.094L191.309 240.777L231.949 255.01L263.388 286.464L274.59 252.094Z" fill="#0F054C"></path><path id="Path 3355" d="M217.018 298.548L293.578 305.604L282.445 257.077L271.233 283.723L217.018 298.548Z" fill="#654CB2"></path><path id="Path 3356" opacity="0.4" d="M271.239 283.722L293.584 305.604L282.451 257.077L271.239 283.722Z" fill="#0F054C"></path></g><g id="coinOverlay"><path id="Vector_64" d="M279.009 163.404L292.031 155.141L299.692 159.986L286.658 168.25L279.009 163.404Z" fill="#91A2FA"></path><path id="Vector_65" opacity="0.8" d="M263.262 157.472L271.63 147.063L281.269 150.184L272.901 160.594L263.262 157.472Z" fill="#91A2FA"></path><path id="Vector_66" opacity="0.6" d="M245.407 154.915L248.286 143.375L258.969 144.448L256.089 155.989L245.407 154.915Z" fill="#91A2FA"></path><path id="Vector_67" opacity="0.4" d="M227.165 155.989L224.285 144.448L234.967 143.375L237.859 154.915L227.165 155.989Z" fill="#91A2FA"></path><path id="Vector_68" opacity="0.2" d="M210.351 160.594L201.996 150.171L211.624 147.063L219.993 157.472L210.351 160.594Z" fill="#91A2FA"></path><path id="Vector_69" opacity="0.1" d="M196.599 168.25L183.576 159.986L191.225 155.141L204.247 163.404L196.599 168.25Z" fill="#91A2FA"></path><path id="Vector_70" opacity="0.2" d="M258.445 179.608L277.881 167.276L280.567 168.985L261.131 181.317L258.445 179.608Z" fill="#91A2FA"></path><path id="Vector_71" opacity="0.4" d="M251.59 176.91L264.072 161.372L267.452 162.474L254.971 178.012L251.59 176.91Z" fill="#91A2FA"></path><path id="Vector_72" opacity="0.6" d="M243.773 175.695L248.067 158.477L251.82 158.858L247.527 176.076L243.773 175.695Z" fill="#91A2FA"></path><path id="Vector_73" opacity="0.8" d="M235.745 176.076L231.438 158.858L235.191 158.477L239.498 175.695L235.745 176.076Z" fill="#91A2FA"></path><path id="Vector_74" d="M228.287 178.012L215.806 162.474L219.2 161.372L231.669 176.91L228.287 178.012ZM222.142 181.318L202.706 168.986L205.393 167.277L224.829 179.609L222.142 181.318ZM217.9 185.653L193.412 177.729L195.135 175.582L219.623 183.506L217.9 185.653ZM215.985 190.612L188.836 187.886L189.427 185.499L216.576 188.239L215.985 190.612ZM216.576 195.712L189.427 198.438L188.836 196.051L215.985 193.325L216.576 195.712ZM219.623 200.443L195.135 208.349L193.412 206.206L217.9 198.296L219.623 200.443ZM224.829 204.342L205.393 216.673L202.706 214.964L222.142 202.633L224.829 204.342Z" fill="#91A2FA"></path><path id="Vector_75" opacity="0.6" d="M322.79 228.001L333.075 238.412C368.053 210.759 367.281 170.936 330.799 143.773L317.97 151.938C346.546 173.804 348.141 205.062 322.79 228.001Z" fill="#97A6FC"></path><path id="Vector_76" d="M143.148 198.704C140.063 180.455 149.575 161.513 171.583 147.529C208.038 124.407 265.82 123.082 304.745 143.532L317.535 135.424C271.528 110.507 202.319 111.835 158.818 139.436C131.707 156.628 120.678 180.159 125.704 202.518L143.148 198.704ZM224.12 229.201L311.764 173.59L318.589 177.912L230.946 233.523L224.12 229.201Z" fill="#97A6FC"></path><path id="Vector_77" opacity="0.8" d="M233.812 235.345L271.913 211.177L278.739 215.516L240.637 239.682L233.812 235.345Z" fill="#97A6FC"></path><path id="Vector_78" opacity="0.6" d="M244.186 241.926L304.834 203.463L311.659 207.785L251.012 246.262L244.186 241.926Z" fill="#97A6FC"></path><path id="Vector_79" opacity="0.2" d="M254.392 248.412L301.607 218.464L308.434 222.786L261.231 252.734L254.392 248.412Z" fill="#97A6FC"></path><path id="Vector_80" d="M241.624 204.117C237.084 204.22 232.596 203.044 228.589 200.699C224.965 198.41 222.972 195.302 222.972 191.969C222.972 188.637 224.965 185.543 228.59 183.239C235.776 178.688 247.474 178.688 254.672 183.239C258.284 185.543 260.275 188.649 260.275 191.969C260.275 195.29 258.282 198.41 254.67 200.699C250.824 202.947 246.534 204.123 242.176 204.123C241.993 204.123 241.809 204.121 241.624 204.117Z" fill="#91A2FA"></path></g></g></g><defs><linearGradient id="paint0_linear" x1="425.415" y1="478.058" x2="461.755" y2="518.361" gradientUnits="userSpaceOnUse"><stop stop-color="#BCBEFF"></stop><stop offset="0.23" stop-color="#AAADF8"></stop><stop offset="0.68" stop-color="#7C83E5"></stop><stop offset="1" stop-color="#5761D7"></stop></linearGradient><linearGradient id="paint1_linear" x1="417.349" y1="466.054" x2="499.917" y2="466.054" gradientUnits="userSpaceOnUse"><stop stop-color="#E9E9FD"></stop><stop offset="0.36" stop-color="#D3D2F9"></stop><stop offset="0.71" stop-color="#C5C4F7"></stop><stop offset="1" stop-color="#C0BFF6"></stop></linearGradient><linearGradient id="paint2_linear" x1="43344.5" y1="8628.35" x2="44983.5" y2="10795.8" gradientUnits="userSpaceOnUse"><stop stop-color="#BCBEFF"></stop><stop offset="0.23" stop-color="#AAADF8"></stop><stop offset="0.68" stop-color="#7C83E5"></stop><stop offset="1" stop-color="#5761D7"></stop></linearGradient><linearGradient id="paint3_linear" x1="42896.9" y1="12760.8" x2="47151.9" y2="12760.8" gradientUnits="userSpaceOnUse"><stop stop-color="#E9E9FD"></stop><stop offset="0.36" stop-color="#D3D2F9"></stop><stop offset="0.71" stop-color="#C5C4F7"></stop><stop offset="1" stop-color="#C0BFF6"></stop></linearGradient><linearGradient id="paint4_linear" x1="300.159" y1="374.72" x2="435.23" y2="374.72" gradientUnits="userSpaceOnUse"><stop stop-color="#5778FF"></stop><stop offset="0.104" stop-color="#567FFF"></stop><stop offset="0.261" stop-color="#5394FF"></stop><stop offset="0.45" stop-color="#4DB6FF"></stop><stop offset="0.664" stop-color="#46E4FF"></stop><stop offset="0.774" stop-color="#42FFFF"></stop></linearGradient><linearGradient id="paint5_linear" x1="35637.5" y1="10730.2" x2="37276.6" y2="12897.6" gradientUnits="userSpaceOnUse"><stop stop-color="#BCBEFF"></stop><stop offset="0.23" stop-color="#AAADF8"></stop><stop offset="0.68" stop-color="#7C83E5"></stop><stop offset="1" stop-color="#5761D7"></stop></linearGradient><linearGradient id="paint6_linear" x1="35208.6" y1="15818" x2="39466.2" y2="15818" gradientUnits="userSpaceOnUse"><stop stop-color="#E9E9FD"></stop><stop offset="0.36" stop-color="#D3D2F9"></stop><stop offset="0.71" stop-color="#C5C4F7"></stop><stop offset="1" stop-color="#C0BFF6"></stop></linearGradient><linearGradient id="paint7_linear" x1="35637.5" y1="9504.47" x2="37276.1" y2="11671.4" gradientUnits="userSpaceOnUse"><stop stop-color="#BCBEFF"></stop><stop offset="0.23" stop-color="#AAADF8"></stop><stop offset="0.68" stop-color="#7C83E5"></stop><stop offset="1" stop-color="#5761D7"></stop></linearGradient><linearGradient id="paint8_linear" x1="35208.6" y1="14058.8" x2="39466.2" y2="14058.8" gradientUnits="userSpaceOnUse"><stop stop-color="#E9E9FD"></stop><stop offset="0.36" stop-color="#D3D2F9"></stop><stop offset="0.71" stop-color="#C5C4F7"></stop><stop offset="1" stop-color="#C0BFF6"></stop></linearGradient><linearGradient id="paint9_linear" x1="185.215" y1="385.413" x2="79.9261" y2="386.078" gradientUnits="userSpaceOnUse"><stop stop-color="#5778FF"></stop><stop offset="0.104" stop-color="#567FFF"></stop><stop offset="0.261" stop-color="#5394FF"></stop><stop offset="0.45" stop-color="#4DB6FF"></stop><stop offset="0.664" stop-color="#46E4FF"></stop><stop offset="0.774" stop-color="#42FFFF"></stop></linearGradient><linearGradient id="paint10_linear" x1="22029.1" y1="4659.83" x2="23668.2" y2="6825.28" gradientUnits="userSpaceOnUse"><stop stop-color="#BCBEFF"></stop><stop offset="0.23" stop-color="#AAADF8"></stop><stop offset="0.68" stop-color="#7C83E5"></stop><stop offset="1" stop-color="#5761D7"></stop></linearGradient><linearGradient id="paint11_linear" x1="21585.5" y1="7148.9" x2="25835.6" y2="7148.9" gradientUnits="userSpaceOnUse"><stop stop-color="#E9E9FD"></stop><stop offset="0.36" stop-color="#D3D2F9"></stop><stop offset="0.71" stop-color="#C5C4F7"></stop><stop offset="1" stop-color="#C0BFF6"></stop></linearGradient><linearGradient id="paint12_linear" x1="22029.1" y1="3556.67" x2="23672.5" y2="5723.35" gradientUnits="userSpaceOnUse"><stop stop-color="#BCBEFF"></stop><stop offset="0.23" stop-color="#AAADF8"></stop><stop offset="0.68" stop-color="#7C83E5"></stop><stop offset="1" stop-color="#5761D7"></stop></linearGradient><linearGradient id="paint13_linear" x1="428.549" y1="74.7218" x2="439.922" y2="122.962" gradientUnits="userSpaceOnUse"><stop offset="0.24" stop-color="#5761D7"></stop><stop offset="0.39" stop-color="#7A82E5"></stop><stop offset="0.55" stop-color="#979CF0"></stop><stop offset="0.7" stop-color="#ACAFF8"></stop><stop offset="0.85" stop-color="#B8BAFD"></stop><stop offset="1" stop-color="#BCBEFF"></stop></linearGradient><linearGradient id="paint14_linear" x1="21606.8" y1="5558.99" x2="25861.2" y2="5558.99" gradientUnits="userSpaceOnUse"><stop stop-color="#E9E9FD"></stop><stop offset="0.36" stop-color="#D3D2F9"></stop><stop offset="0.71" stop-color="#C5C4F7"></stop><stop offset="1" stop-color="#C0BFF6"></stop></linearGradient><linearGradient id="paint15_linear" x1="21011.3" y1="5388.71" x2="25006.7" y2="5388.71" gradientUnits="userSpaceOnUse"><stop stop-color="#E9E9FD"></stop><stop offset="0.36" stop-color="#D3D2F9"></stop><stop offset="0.71" stop-color="#C5C4F7"></stop><stop offset="1" stop-color="#C0BFF6"></stop></linearGradient><linearGradient id="paint16_linear" x1="340.961" y1="251.604" x2="421.632" y2="124.333" gradientUnits="userSpaceOnUse"><stop stop-color="#5778FF"></stop><stop offset="0.104" stop-color="#567FFF"></stop><stop offset="0.261" stop-color="#5394FF"></stop><stop offset="0.45" stop-color="#4DB6FF"></stop><stop offset="0.664" stop-color="#46E4FF"></stop><stop offset="0.774" stop-color="#42FFFF"></stop></linearGradient><linearGradient id="paint17_linear" x1="82709.7" y1="15201.3" x2="105500" y2="-8205.35" gradientUnits="userSpaceOnUse"><stop stop-color="#35068C"></stop><stop offset="0.02" stop-color="#40DDDA"></stop><stop offset="0.09" stop-color="#3AAEC0"></stop><stop offset="0.17" stop-color="#3484A9"></stop><stop offset="0.26" stop-color="#2F6195"></stop><stop offset="0.35" stop-color="#2B4486"></stop><stop offset="0.44" stop-color="#282E79"></stop><stop offset="0.54" stop-color="#261E71"></stop><stop offset="0.66" stop-color="#24156C"></stop><stop offset="0.82" stop-color="#24126A"></stop></linearGradient><linearGradient id="paint18_linear" x1="129.846" y1="298.179" x2="347.776" y2="298.179" gradientUnits="userSpaceOnUse"><stop stop-color="#3671E9"></stop><stop offset="0.15" stop-color="#91A2FA"></stop><stop offset="0.33" stop-color="#8B97F1"></stop><stop offset="0.52" stop-color="#7366C8"></stop><stop offset="0.72" stop-color="#654CB3"></stop><stop offset="0.93" stop-color="#4127A7"></stop><stop offset="1" stop-color="#260672"></stop></linearGradient><linearGradient id="paint19_linear" x1="18345.1" y1="40968" x2="70209.9" y2="40968" gradientUnits="userSpaceOnUse"><stop stop-color="#42E8E0"></stop><stop offset="0.15" stop-color="#43E3E0"></stop><stop offset="0.33" stop-color="#45D5DF"></stop><stop offset="0.52" stop-color="#49BDDD"></stop><stop offset="0.72" stop-color="#4E9CDB"></stop><stop offset="0.93" stop-color="#5472D8"></stop><stop offset="1" stop-color="#5761D7"></stop></linearGradient><linearGradient id="paint20_linear" x1="84973.4" y1="20625.7" x2="105972" y2="-5342.38" gradientUnits="userSpaceOnUse"><stop stop-color="#654CB2"></stop><stop offset="0.02" stop-color="#40DDDA"></stop><stop offset="0.09" stop-color="#3AAEC0"></stop><stop offset="0.17" stop-color="#3484A9"></stop><stop offset="0.26" stop-color="#2F6195"></stop><stop offset="0.35" stop-color="#2B4486"></stop><stop offset="0.44" stop-color="#282E79"></stop><stop offset="0.54" stop-color="#261E71"></stop><stop offset="0.66" stop-color="#24156C"></stop><stop offset="0.82" stop-color="#24126A"></stop></linearGradient><linearGradient id="paint21_linear" x1="219.768" y1="238.236" x2="245.964" y2="518.237" gradientUnits="userSpaceOnUse"><stop stop-color="#42E8E0"></stop><stop offset="0.02" stop-color="#40DDDA"></stop><stop offset="0.09" stop-color="#3AAEC0"></stop><stop offset="0.17" stop-color="#3484A9"></stop><stop offset="0.26" stop-color="#2F6195"></stop><stop offset="0.35" stop-color="#2B4486"></stop><stop offset="0.44" stop-color="#282E79"></stop><stop offset="0.54" stop-color="#261E71"></stop><stop offset="0.66" stop-color="#24156C"></stop><stop offset="0.82" stop-color="#24126A"></stop></linearGradient><linearGradient id="paint22_linear" x1="124.891" y1="237.566" x2="355.187" y2="237.566" gradientUnits="userSpaceOnUse"><stop stop-color="#2B237C"></stop><stop offset="1" stop-color="#180D5B"></stop></linearGradient></defs></svg>