<svg width="67" height="67" viewBox="0 0 67 67" fill="none" xmlns="http://www.w3.org/2000/svg">
<g id="trapIcon">
<path id="blubg" d="M25.1936 65.4791C18.816 63.889 13.0531 60.4435 8.63365 55.5782C4.21421 50.7129 1.33675 44.6463 0.365126 38.1457C-0.606493 31.645 0.371373 25.0022 3.17507 19.0573C5.97876 13.1124 10.4824 8.13241 16.1163 4.74705C21.7503 1.36168 28.2617 -0.276988 34.827 0.0382555C41.3923 0.353499 47.7167 2.6085 53.0004 6.5181C58.2841 10.4277 62.2898 15.8163 64.511 22.0025C66.7322 28.1887 67.0691 34.8946 65.4791 41.2722C64.4234 45.5069 62.5439 49.4921 59.9481 53.0004C57.3522 56.5087 54.0907 59.4713 50.3498 61.7191C46.609 63.9669 42.462 65.4559 38.1457 66.1011C33.8294 66.7462 29.4283 66.5348 25.1936 65.4791V65.4791Z" fill="#1181E8"/>
<g id="tap">
<path id="Path 671" d="M44.2359 20.7133C43.6813 20.1484 42.9093 19.7961 42.0775 19.7283C41.2456 19.6605 40.4164 19.8823 39.7592 20.3485L27.1964 28.5899C26.8482 28.7964 26.4678 28.9546 26.0678 29.0591L25.9524 29.08C26.0739 28.702 26.2343 28.2581 26.3885 27.8251C26.7867 26.9097 27.0632 25.9546 27.2122 24.9802C27.3561 23.7529 27.0601 22.5163 26.3679 21.4528L26.3618 21.4429C25.832 20.7572 25.0613 20.2537 24.1751 20.0144C23.8111 19.9092 23.4269 19.8739 23.047 19.9108C22.6671 19.9477 22.2999 20.056 21.9689 20.2287C21.6675 20.4129 21.412 20.6521 21.2187 20.9308C21.0254 21.2095 20.8986 21.5217 20.8464 21.8473C20.3811 23.697 19.6501 25.4835 18.6718 27.1614C18.4896 27.479 18.3074 27.8438 18.1373 28.1987C17.9404 28.6244 17.7185 29.0404 17.4728 29.4448L17.4606 29.4635C16.7949 30.5523 16.4049 31.7612 16.3187 33.0029C15.9759 35.5809 15.0712 38.0717 13.6569 40.3312C13.127 41.1332 12.9082 42.0722 13.0352 42.9994C13.1622 43.9266 13.6277 44.7889 14.3579 45.4497L20.7735 51.2583L20.833 51.3088C21.392 51.7546 22.1118 52.0004 22.857 52C23.4887 52.002 24.1046 51.8215 24.6149 51.4846L25.3268 51.0187C25.6938 50.7796 26.0754 50.5595 26.4699 50.3594C27.1969 49.9859 27.9663 49.6845 28.7648 49.4605C31.9286 48.4956 34.9202 47.1189 37.6453 45.3739C37.9816 45.1883 38.2683 44.9379 38.4851 44.6404C38.7018 44.3429 38.8432 44.0057 38.899 43.6531L38.9088 43.5937C39.4059 39.4128 38.7216 35.1861 36.9201 31.3096L44.0293 24.8813C44.6358 24.3477 44.9976 23.627 45.0427 22.8628C45.0877 22.0986 44.8126 21.3472 44.2723 20.7584L44.2359 20.7133Z" fill="white"/>
<path id="Path 672" d="M47.9825 17.0926C46.5549 15.8043 44.6208 15.0809 42.6043 15.0809C40.5879 15.0809 38.6537 15.8043 37.2262 17.0926C36.9827 17.319 36.8475 17.6231 36.8499 17.9391C36.8524 18.255 36.9922 18.5574 37.2392 18.7808C37.4862 19.0042 37.8204 19.1306 38.1697 19.1328C38.519 19.135 38.8552 19.0128 39.1056 18.7925C39.5629 18.3677 40.1089 18.0294 40.712 17.7971C41.315 17.5647 41.9631 17.4431 42.6185 17.4392C43.274 17.4352 43.9238 17.5491 44.5302 17.7742C45.1366 17.9992 45.6875 18.331 46.151 18.7503C46.6145 19.1695 46.9813 19.6678 47.2301 20.2163C47.4789 20.7648 47.6048 21.3526 47.6005 21.9455C47.5961 22.5383 47.4617 23.1245 47.2048 23.67C46.948 24.2155 46.5739 24.7094 46.1043 25.123C45.9781 25.2341 45.8775 25.3667 45.8084 25.5132C45.7394 25.6597 45.7031 25.8172 45.7019 25.9764C45.7007 26.1357 45.7345 26.2936 45.8013 26.441C45.8681 26.5883 45.9666 26.7222 46.0912 26.8349C46.2157 26.9475 46.3637 27.0366 46.5266 27.097C46.6895 27.1575 46.8641 27.188 47.0401 27.1869C47.2162 27.1858 47.3903 27.1531 47.5523 27.0906C47.7143 27.0281 47.8609 26.9371 47.9837 26.8229C49.4081 25.5315 50.208 23.7817 50.2077 21.9575C50.2075 20.1333 49.4072 18.3837 47.9825 17.0926V17.0926Z" fill="white"/>
<path id="Path 673" d="M51.3986 14.2619C49.0896 12.1733 45.9579 11 42.6924 11C39.4269 11 36.2952 12.1733 33.9862 14.2619C33.86 14.3729 33.7594 14.5056 33.6903 14.6521C33.6212 14.7986 33.585 14.9561 33.5838 15.1153C33.5826 15.2746 33.6163 15.4325 33.6832 15.5799C33.75 15.7272 33.8485 15.8611 33.973 15.9737C34.0975 16.0864 34.2456 16.1755 34.4085 16.2359C34.5714 16.2964 34.746 16.3269 34.9221 16.3258C35.0981 16.3247 35.2722 16.292 35.4342 16.2295C35.5962 16.167 35.7428 16.076 35.8656 15.9618C37.6829 14.3534 40.1282 13.4582 42.6707 13.4707C45.2133 13.4831 47.6478 14.4022 49.4457 16.0283C51.2437 17.6545 52.26 19.8564 52.2739 22.1562C52.2879 24.456 51.2985 26.668 49.5204 28.3119C49.2769 28.5384 49.1418 28.8425 49.1442 29.1584C49.1466 29.4743 49.2864 29.7767 49.5334 30.0001C49.7804 30.2235 50.1147 30.35 50.464 30.3522C50.8132 30.3544 51.1494 30.2321 51.3998 30.0118C53.7053 27.9215 55 25.0895 55 22.1369C55 19.1843 53.7053 16.3522 51.3998 14.2619H51.3986Z" fill="white"/>
</g>
</g>
</svg>
